<svg width="90" height="21" viewBox="0 0 90 21" fill="none" xmlns="http://www.w3.org/2000/svg">
<path d="M16.5203 0.583008H14.8034C14.67 0.583008 14.5367 0.633017 14.4366 0.733035C14.3366 0.833052 14.2866 0.96641 14.2866 1.09977V4.33367C14.2866 4.46703 14.3366 4.60038 14.4366 4.7004C14.5367 4.80042 14.67 4.85043 14.8034 4.85043H16.0036C16.1369 4.85043 16.2703 4.90044 16.3703 5.00045C16.4703 5.10047 16.5203 5.23383 16.5203 5.36719V10.3347C16.5203 10.4681 16.5704 10.6014 16.6704 10.7015C16.7704 10.8015 16.9037 10.8515 17.0371 10.8515H20.271C20.4044 10.8515 20.5377 10.8015 20.6377 10.7015C20.7378 10.6014 20.7878 10.4681 20.7878 10.3347V1.09977C20.7878 0.96641 20.7378 0.833052 20.6377 0.733035C20.5377 0.633017 20.4044 0.583008 20.271 0.583008H16.5203Z" fill="#464547"/>
<path d="M16.687 11.8187C16.6204 11.8187 16.5537 11.8354 16.487 11.8854C16.437 11.9354 16.387 11.9854 16.3703 12.0521L16.287 12.4022C16.0203 13.419 15.4368 14.3359 14.5867 15.0693C14.0532 15.5361 13.4365 15.8861 12.7864 16.1362C12.1196 16.3862 11.4028 16.5196 10.6693 16.5196C9.26907 16.5196 7.88549 16.0028 6.81864 15.0693C5.75178 14.1358 5.06833 12.8856 4.90163 11.5187C4.68493 9.83506 5.15168 8.21811 6.16852 6.96789C6.53526 6.51781 6.98533 6.13441 7.46875 5.81768C7.95217 5.50096 8.4856 5.25092 9.05237 5.10089C9.31908 5.03421 9.58579 4.96753 9.85251 4.91752C10.2026 4.86752 10.5526 4.86752 10.9027 4.83418C10.9194 4.83418 10.9194 4.83418 10.936 4.83418H12.9197C13.0031 4.83418 13.0864 4.80084 13.1531 4.73416C13.2198 4.66748 13.2531 4.58413 13.2531 4.50078V1.00017C13.2531 0.88348 13.2031 0.783463 13.1364 0.716784C13.0697 0.650106 12.9531 0.600098 12.853 0.600098H10.4526C9.93585 0.600098 9.40243 0.650105 8.88567 0.750123C8.58562 0.800132 8.28556 0.883481 8.00218 0.950159C7.26872 1.15019 6.56859 1.43358 5.90181 1.78364C4.65159 2.45042 3.5514 3.36725 2.66791 4.50078C1.80109 5.61765 1.16764 6.91788 0.83425 8.28478C0.484188 9.73504 0.450849 11.2186 0.734232 12.7189C1.18431 15.0693 2.50121 17.1864 4.41822 18.67C5.31837 19.3701 6.31855 19.9035 7.40207 20.2702C8.4856 20.637 9.60246 20.8203 10.7527 20.8203C10.886 20.8203 11.0194 20.8203 11.1527 20.8203C13.5032 20.7203 15.7869 19.7701 17.5705 18.1365C18.354 17.4197 19.0041 16.5863 19.5375 15.6694C20.0543 14.7693 20.4044 13.7858 20.6044 12.7689L20.7044 12.2188C20.7211 12.1688 20.7044 12.1188 20.7044 12.0855C20.6878 12.0354 20.6711 12.0021 20.6377 11.9521C20.6044 11.9188 20.5711 11.8854 20.5211 11.8688C20.471 11.8521 20.4377 11.8354 20.3877 11.8354L16.687 11.8187Z" fill="#5FC3AE"/>
<path d="M34.6069 8.5678C34.0568 7.73432 33.0233 7.2509 32.0231 7.2509C30.3395 7.2509 28.9392 8.71783 28.9392 10.3348C28.9392 12.0684 30.4061 13.4687 32.0731 13.4687C33.0733 13.4687 34.0568 12.9352 34.6402 12.1184H35.457C34.8236 13.352 33.4734 14.1855 32.0731 14.1855C29.9061 14.1855 28.1891 12.5185 28.1891 10.3348C28.1891 8.23441 29.9061 6.55078 32.0064 6.55078C32.7566 6.55078 33.5067 6.75082 34.1401 7.16756C34.6069 7.46761 35.2237 8.03438 35.4237 8.5678H34.6069Z" fill="#464547"/>
<path d="M37.5074 7.33426H36.2571V6.66748H38.2408V14.0521H37.5074V7.33426Z" fill="#464547"/>
<path d="M49.4595 8.5678C48.9094 7.73432 47.8759 7.2509 46.8758 7.2509C45.1921 7.2509 43.7919 8.71783 43.7919 10.3348C43.7919 12.0684 45.2588 13.4687 46.9258 13.4687C47.9259 13.4687 48.9094 12.9352 49.4929 12.1184H50.3097C49.6763 13.352 48.326 14.1855 46.9258 14.1855C44.7587 14.1855 43.0417 12.5185 43.0417 10.3348C43.0417 8.23441 44.7587 6.55078 46.8591 6.55078C47.6092 6.55078 48.3593 6.75082 48.9928 7.16756C49.4595 7.46761 50.0763 8.03438 50.2764 8.5678H49.4595Z" fill="#464547"/>
<path d="M56.7608 14.0687H56.044V13.0352H56.0273C55.6273 13.802 54.7938 14.202 53.927 14.202C53.1101 14.202 52.21 13.8353 51.5099 13.0352C51.3098 12.8185 50.9764 12.1183 50.9764 11.3015C50.9764 10.5514 51.2932 9.88462 51.7599 9.38453C52.2767 8.85111 52.9768 8.48438 53.8936 8.48438C54.7604 8.48438 55.6273 8.86778 56.0107 9.65125H56.0273V8.61773H56.7441V14.0687H56.7608ZM51.7266 11.3515C51.7266 12.5518 52.7601 13.4853 53.9436 13.4853C55.0772 13.4853 56.0607 12.5017 56.0607 11.3682C56.0607 10.1513 55.1438 9.1845 53.927 9.1845C52.7101 9.1845 51.7266 10.1347 51.7266 11.3515Z" fill="#464547"/>
<path d="M58.0277 8.58453H58.7278V9.368H58.7445C59.0112 8.71789 59.6446 8.48451 60.3114 8.45117V9.18464C59.9113 9.21798 59.628 9.30132 59.3279 9.56804C58.8111 10.0014 58.7611 10.3682 58.7611 10.985V14.0522H58.0277V8.58453Z" fill="#464547"/>
<path d="M63.5287 6.66748H64.2621V13.3853H67.3293V14.0521H63.5287V6.66748Z" fill="#464547"/>
<path d="M73.1636 11.2849C73.1636 12.8519 71.8968 14.1854 70.3298 14.1854C68.7795 14.1854 67.4626 12.9186 67.4626 11.3516C67.4626 9.768 68.7295 8.46777 70.3298 8.46777C71.8468 8.46777 73.1636 9.768 73.1636 11.2849ZM68.1961 11.3683C68.1961 12.5352 69.1629 13.4853 70.3298 13.4853C71.5467 13.4853 72.4302 12.4851 72.4302 11.3016C72.4302 10.7015 72.2302 10.2181 71.7967 9.78467C71.4133 9.41794 70.8799 9.18457 70.3298 9.18457C69.1129 9.18457 68.1961 10.1681 68.1961 11.3683Z" fill="#464547"/>
<path d="M79.6315 14.0687H78.9147V13.0352H78.898C78.4979 13.802 77.6644 14.202 76.7976 14.202C75.9808 14.202 75.0807 13.8353 74.3805 13.0352C74.1805 12.8185 73.8471 12.1183 73.8471 11.3015C73.8471 10.5514 74.1638 9.88462 74.6306 9.38453C75.1473 8.85111 75.8475 8.48438 76.7643 8.48438C77.6311 8.48438 78.4979 8.86778 78.8813 9.65125H78.898V8.61773H79.6148V14.0687H79.6315ZM74.5972 11.3515C74.5972 12.5518 75.6308 13.4853 76.8143 13.4853C77.9478 13.4853 78.9313 12.5017 78.9313 11.3682C78.9313 10.1513 78.0145 9.1845 76.7976 9.1845C75.5807 9.1845 74.5972 10.1347 74.5972 11.3515Z" fill="#464547"/>
<path d="M80.8817 8.58453H81.5818V9.368H81.5985C81.9985 8.78456 82.5653 8.45117 83.2821 8.45117C84.0156 8.45117 84.7324 8.76789 85.2158 9.368C85.6325 9.90143 85.7159 10.4849 85.7159 11.1683V14.0522H84.9824V11.1683C84.9824 10.7016 84.9491 10.2515 84.6657 9.86809C84.3323 9.40134 83.8155 9.16797 83.2488 9.16797C82.732 9.16797 82.2152 9.41801 81.9152 9.83475C81.6318 10.2182 81.6318 10.7016 81.6318 11.1683V14.0522H80.8984V8.58453H80.8817Z" fill="#464547"/>
<path d="M87.2828 12.4518C87.2662 13.0186 87.7163 13.4853 88.2664 13.4853C88.7998 13.4853 89.2332 13.1186 89.2332 12.5685C89.2332 11.9017 88.7164 11.6683 88.1663 11.5183C87.8163 11.4016 87.4495 11.3016 87.1828 11.0349C86.8994 10.7682 86.7494 10.3848 86.7494 10.0014C86.7494 9.11789 87.4662 8.46777 88.333 8.46777C89.1498 8.46777 89.85 9.15123 89.85 9.95137H89.1165C89.1165 9.46795 88.7498 9.18457 88.2664 9.18457C87.8496 9.18457 87.4995 9.51796 87.4995 9.95137C87.4995 10.5515 87.983 10.7182 88.4664 10.8682C89.2832 11.1349 90 11.485 90 12.4685C90 13.502 89.2499 14.2021 88.233 14.2021C87.2995 14.2021 86.516 13.3853 86.5661 12.4685H87.2828V12.4518Z" fill="#464547"/>
</svg>
