<svg width="48" height="33" viewBox="0 0 48 33" fill="none" xmlns="http://www.w3.org/2000/svg">
<g clip-path="url(#clip0_73_912)">
<path d="M23.2073 26.1397L36.3128 13.0688L33.0262 9.81885L28.9422 13.9028L23.2073 26.1397Z" fill="#000002"/>
<path d="M23.2074 0L10.1386 13.0688L23.2074 26.1397L28.9422 13.9029L33.0262 9.82104L23.2074 0Z" fill="#FFCC00"/>
<path d="M3.72305 32.0172C3.47887 32.5034 2.96892 32.8686 2.20398 32.8686C1.01335 32.8686 0.285156 32.0777 0.285156 30.9649C0.285156 29.9255 0.892348 29.0396 2.12187 29.0396C3.32762 29.0396 3.86999 29.7634 3.89376 30.483H2.65991C2.55835 30.1027 2.32066 30.0271 2.15212 30.0271C1.93387 30.0271 1.56437 30.1784 1.56437 30.9433C1.56437 31.7082 1.93387 31.8594 2.15212 31.8594C2.28393 31.8594 2.46544 31.8055 2.59293 31.5915C2.63398 31.5267 2.67936 31.4251 2.69017 31.3387H3.89375C3.89375 31.5721 3.81813 31.8357 3.72305 32.0172" fill="#000002"/>
<path d="M5.46684 32.8684C4.56577 32.8684 3.97369 32.3261 3.97369 31.4401C3.97369 30.5434 4.6025 30.0312 5.46684 30.0312C6.33982 30.0312 6.98807 30.5585 6.98807 31.4596C6.98807 32.3671 6.33333 32.8684 5.46684 32.8684ZM5.4841 30.8113C5.16862 30.8113 5.13837 31.2478 5.13837 31.4747C5.13837 31.7037 5.17294 32.1337 5.4841 32.1337C5.7931 32.1337 5.82768 31.6972 5.82768 31.4747C5.82768 31.2478 5.7931 30.8113 5.4841 30.8113Z" fill="#000002"/>
<path d="M13.771 32.7521V31.3195C13.771 31.071 13.691 30.9694 13.5138 30.9694C13.3366 30.9694 13.2199 31.1315 13.2199 31.3389V32.7521H12.0898V31.3238C12.0898 31.0753 12.0099 30.9802 11.8327 30.9802C11.649 30.9802 11.5323 31.1358 11.5323 31.3432V32.7521H10.4238V31.3238C10.4238 31.0753 10.3439 30.9802 10.1667 30.9802C9.98301 30.9802 9.86632 31.1358 9.86632 31.3432V32.7521H8.75781V31.3238C8.75781 31.0753 8.67785 30.9802 8.49851 30.9802C8.317 30.9802 8.20031 31.1358 8.20031 31.3432V32.7521H7.0918V30.185H8.09875L8.12469 30.4119C8.29107 30.2045 8.57631 30.0532 8.93068 30.0532C9.28506 30.0532 9.64376 30.2239 9.76477 30.4486C9.90305 30.2347 10.2466 30.0575 10.6118 30.0575C11.031 30.0575 11.3098 30.2693 11.4416 30.4638C11.5626 30.2693 11.8975 30.0575 12.2519 30.0575C12.697 30.0575 12.9369 30.239 13.1033 30.4638C13.3604 30.118 13.7018 30.0575 13.9093 30.0575C14.698 30.0575 14.886 30.5697 14.886 31.1423V32.7521H13.771Z" fill="#000002"/>
<path d="M16.485 32.8684C15.5839 32.8684 14.9897 32.3261 14.9897 31.4401C14.9897 30.5434 15.6185 30.0312 16.485 30.0312C17.3558 30.0312 18.0041 30.5585 18.0041 31.4596C18.0041 32.3671 17.3515 32.8684 16.485 32.8684ZM16.5002 30.8113C16.1847 30.8113 16.1545 31.2478 16.1545 31.4747C16.1545 31.7037 16.1912 32.1337 16.5002 32.1337C16.8092 32.1337 16.8438 31.6972 16.8438 31.4747C16.8438 31.2478 16.8092 30.8113 16.5002 30.8113Z" fill="#000002"/>
<path d="M19.7997 32.7478V31.3238C19.7997 31.0753 19.6938 30.9781 19.5167 30.9781C19.333 30.9781 19.2163 31.1358 19.2163 31.3432V32.7478H18.1078V30.185H19.132L19.1407 30.4422C19.3546 30.185 19.642 30.0532 19.9466 30.0532C20.3161 30.0532 20.9233 30.265 20.9233 30.924V32.7478H19.7997Z" fill="#000002"/>
<path d="M24.6141 32.7476L23.4537 32.7413C23.4537 32.7413 23.3024 32.2919 23.2419 32.0067C23.1404 31.6631 23.1296 31.5161 23.1296 31.5161C23.1296 31.5161 23.1251 31.6631 23.028 32.0067C22.9739 32.2703 22.8162 32.7478 22.8162 32.7478H21.6472L20.8758 30.1851H22.0815C22.0815 30.1851 22.2198 30.6259 22.2695 30.8744C22.3452 31.1574 22.3603 31.3238 22.3603 31.3238C22.3603 31.3238 22.3753 31.1618 22.4575 30.8744C22.5137 30.6086 22.6498 30.1851 22.6498 30.1851H23.6633C23.6633 30.1851 23.7994 30.6086 23.8556 30.8744C23.942 31.1769 23.9507 31.3238 23.9507 31.3238C23.9507 31.3238 23.9615 31.1813 24.0479 30.8744C24.0976 30.6302 24.2337 30.1851 24.2337 30.1851H25.3833L24.6141 32.7476Z" fill="#000002"/>
<path d="M26.3535 31.6432C26.3599 31.9004 26.4702 32.1229 26.7706 32.1229C26.911 32.1229 27.0882 32.0516 27.1401 31.8961H28.2032C28.1837 32.0063 28.1211 32.1381 28.0671 32.2245C27.7818 32.6502 27.2416 32.8619 26.7252 32.8619C25.7766 32.8619 25.2104 32.3001 25.1845 31.4963C25.165 30.7811 25.5799 30.0312 26.6431 30.0312C27.6262 30.0312 28.2226 30.6341 28.2226 31.6432H26.3535ZM26.7554 30.686C26.5372 30.686 26.3902 30.8567 26.3708 31.0749H27.1249C27.1033 30.8675 26.9564 30.686 26.7554 30.686Z" fill="#000002"/>
<path d="M30.161 32.7478L30.1307 32.5187C29.9427 32.711 29.5538 32.8623 29.2599 32.8623C29.0719 32.8623 28.6462 32.8277 28.4236 32.5295C28.2464 32.2854 28.227 31.8899 28.3826 31.6371C28.5965 31.2979 29.087 31.1725 29.5732 31.1099C29.7504 31.0904 29.9989 31.0343 29.9989 30.8787C29.9989 30.7554 29.9341 30.6496 29.772 30.6496C29.6099 30.6496 29.4673 30.7857 29.4673 30.9586H28.4128L28.4193 30.9283C28.5295 30.3168 28.9768 30.0078 29.7352 30.0078C31.0166 30.0078 31.1679 30.4529 31.1743 31.2222L31.183 31.9418C31.1894 32.4323 31.2133 32.5446 31.2651 32.7478L30.161 32.7478ZM30.0184 31.6133C30.0184 31.6133 29.8714 31.6587 29.7353 31.6975C29.6489 31.7234 29.4328 31.7645 29.4328 31.9374C29.4328 32.0238 29.5019 32.1297 29.6553 32.1232C29.9427 32.1138 30.0184 31.9461 30.0184 31.6932V31.6133Z" fill="#000002"/>
<path d="M31.4207 29.1304H32.5292V32.7476H31.4207V29.1304Z" fill="#000002"/>
<path d="M33.8992 32.8319C33.1645 32.8319 32.9679 32.4775 32.9679 31.7947V30.8936H32.6286V30.1849H32.9679V29.1304H34.0764V30.1849H34.5129V30.8936H34.0764V31.5916C34.0764 31.8401 34.1585 31.9978 34.407 31.9978C34.4458 31.9978 34.4977 31.9915 34.5474 31.9821C34.5734 31.9758 34.5734 31.9712 34.5734 31.9712V32.695C34.3659 32.79 34.1282 32.8311 33.8992 32.8311" fill="#000002"/>
<path d="M37.5402 32.7476H36.4295V31.3279C36.4295 31.0794 36.3193 30.9779 36.14 30.9779C35.9628 30.9779 35.8461 31.1421 35.8461 31.3495V32.7476H34.6922V29.1304H35.7661V30.442C35.9347 30.2345 36.2523 30.053 36.5678 30.053C36.9416 30.053 37.5402 30.2648 37.5402 30.9239V32.7476Z" fill="#000002"/>
<path d="M40.0403 30.8351C40.3601 30.74 40.574 30.4483 40.574 30.0658C40.574 29.4824 40.1548 29.1323 39.4569 29.1323H38.0653V32.7539H39.4958C40.2715 32.7539 40.7339 32.3693 40.7339 31.721C40.7339 31.1506 40.3061 30.8934 40.0403 30.8351ZM38.383 31.0166H39.4958C39.8394 31.0166 40.4163 31.1074 40.4163 31.7167C40.4163 32.3693 39.8394 32.4665 39.4958 32.4665H38.383V31.0166ZM39.4958 30.7249H38.383V29.4197H39.4569C39.7551 29.4197 40.2564 29.5039 40.2564 30.0745C40.2564 30.4937 39.9863 30.7249 39.4958 30.7249Z" fill="#000002"/>
<path d="M43.1562 32.4837L43.1217 32.4884L43.0071 32.4963C42.9466 32.4963 42.8624 32.4724 42.8624 32.2607V30.8519C42.8624 30.3614 42.549 30.1021 41.9548 30.1021C41.3757 30.1021 41.0256 30.3873 40.9738 30.9102L40.9693 30.9405H41.2718L41.2741 30.9167C41.2893 30.7892 41.3302 30.679 41.3929 30.5947C41.5053 30.4456 41.6954 30.3678 41.9396 30.3678C42.5209 30.3678 42.5662 30.7308 42.5662 30.8432V30.9188C42.5662 31.0808 42.4625 31.1262 42.3069 31.1435C41.9353 31.1954 41.4729 31.2774 41.2028 31.4374C41.0882 31.5001 40.991 31.5951 40.9413 31.688C40.8311 31.8847 40.8246 32.1915 40.9262 32.4162C41.0429 32.6755 41.3195 32.8181 41.6998 32.8181C42.0953 32.8181 42.3934 32.6475 42.575 32.3385V32.3751C42.5814 32.6366 42.7068 32.7641 42.9574 32.7641L43.1606 32.7274L43.1561 32.7058L43.1562 32.4837ZM42.5663 31.3752V31.7512C42.5663 31.9587 42.4086 32.5464 41.715 32.5464C41.3822 32.5464 41.151 32.3454 41.151 32.0559C41.151 31.6734 41.4427 31.5935 41.7539 31.5092C41.9916 31.4465 42.333 31.3947 42.5663 31.3753" fill="#000002"/>
<path d="M44.4031 30.1006C44.0508 30.1006 43.7462 30.2929 43.5992 30.5781V30.1719H43.301V32.7541H43.5992V31.3128C43.5992 30.7467 43.9169 30.3685 44.3944 30.3685C44.8136 30.3685 45.0189 30.6192 45.0189 31.1335V32.7541H45.3149V31.1335C45.3149 30.8785 45.3149 30.1006 44.4031 30.1006Z" fill="#000002"/>
<path d="M46.5898 31.1419C46.6222 31.1094 47.6054 30.1717 47.6054 30.1717H47.2035C47.2035 30.1717 45.9956 31.3256 45.907 31.4099V29.1323H45.6088V32.7539H45.907V31.7794C45.9242 31.7637 46.324 31.3991 46.3672 31.3602C46.4018 31.4121 47.3202 32.7539 47.3202 32.7539H47.6832C47.6832 32.7539 46.6157 31.1808 46.5898 31.1419Z" fill="#000002"/>
</g>
<defs>
<clipPath id="clip0_73_912">
<rect width="47.398" height="32.8685" fill="white" transform="translate(0.285156)"/>
</clipPath>
</defs>
</svg>
