<svg width="90" height="16" viewBox="0 0 90 16" fill="none" xmlns="http://www.w3.org/2000/svg">
<path d="M67.9825 10.4647C67.9825 9.30395 67.1528 8.35957 65.9085 8.35957C64.6753 8.35957 63.8456 9.29402 63.8456 10.4647C63.8456 11.6256 64.6753 12.56 65.9085 12.56C67.1528 12.56 67.9825 11.6156 67.9825 10.4647ZM61.0105 10.4645C61.0105 7.69621 62.8904 5.45703 65.9046 5.45703C68.928 5.45703 70.8176 7.69621 70.8176 10.4645C70.8176 13.2234 68.928 15.472 65.9046 15.472C62.8904 15.472 61.0105 13.2234 61.0105 10.4645Z" fill="#00B6C9"/>
<path d="M9.5448 15.0042V5.7738C9.5448 5.37793 10.3558 5.37793 11.1765 5.37793C11.9778 5.37793 12.7792 5.37793 12.7792 5.7738V15.0042C12.7792 15.3999 11.9778 15.3999 11.1669 15.3999C10.3558 15.3999 9.5448 15.3999 9.5448 15.0042Z" fill="#0E0F40"/>
<path d="M12.7464 2.8675C12.7464 3.76285 12.0205 4.48877 11.125 4.48877C10.2298 4.48877 9.50387 3.76285 9.50387 2.8675C9.50387 1.972 10.2298 1.24607 11.125 1.24607C12.0205 1.24607 12.7464 1.972 12.7464 2.8675Z" fill="#0E0F40"/>
<path d="M3.91676 15.3998C4.72772 15.3998 5.54845 15.3998 5.54845 15.0041V8.26456H7.3828C7.77883 8.26456 7.77884 7.56943 7.77884 6.8743C7.77884 6.16956 7.77883 5.47426 7.3828 5.47426H5.54845V4.54748C5.54845 4.02601 5.87672 3.54331 6.53324 3.54331C7.01593 3.54331 7.54718 3.65897 8.00072 3.91979C8.0491 3.93901 8.09732 3.9584 8.14571 3.9584C8.47397 3.9584 8.73478 3.3791 8.92767 2.81902C9.06288 2.41354 9.16926 2.00806 9.16926 1.71841C9.16926 1.52536 9.12088 1.38053 9.01466 1.32254C8.1747 0.839839 7.3828 0.666016 6.26297 0.666016C3.90699 0.666016 2.30429 2.09489 2.30429 4.54748V5.47426H0.94971C0.553679 5.47426 0.544067 6.16956 0.544067 6.8743C0.544067 7.56943 0.553679 8.26456 0.94971 8.26456H2.30429V15.0041C2.30429 15.3998 3.10564 15.3998 3.91676 15.3998Z" fill="#0E0F40"/>
<path d="M48.0768 15.5056C49.2741 15.5056 50.3554 15.3125 51.3112 14.7524C51.4078 14.7041 51.4463 14.569 51.4463 14.3952C51.4463 14.0283 51.2822 13.4876 51.1278 13.082C50.9056 12.4931 50.6065 11.8944 50.2877 11.8944C50.2396 11.8944 50.2008 11.9041 50.1526 11.9234C49.6119 12.2518 49.0326 12.4448 48.4049 12.4448C47.3139 12.4448 46.561 11.5663 46.561 10.3883C46.561 9.20068 47.3139 8.32211 48.4049 8.32211C49.0326 8.32211 49.6023 8.52477 50.1236 8.83364C50.1622 8.8628 50.2104 8.87242 50.2492 8.87242C50.5677 8.87242 50.925 8.20612 51.1568 7.59782C51.3016 7.23095 51.4657 6.75786 51.4657 6.41999C51.4657 6.22678 51.4174 6.08212 51.2918 6.01451C50.3361 5.46404 49.2933 5.271 48.0768 5.271C45.4602 5.271 43.2974 7.25995 43.2974 10.3883C43.2974 13.5454 45.4602 15.5056 48.0768 15.5056Z" fill="#0E0F40"/>
<path d="M54.5281 9.37303C54.5281 8.53145 55.1851 7.84919 55.9957 7.84919C56.8062 7.84919 57.4632 8.53145 57.4632 9.37303H54.5281ZM56.1695 5.271C53.2922 5.271 51.3515 7.46277 51.3515 10.3401C51.3515 13.2558 53.186 15.5056 56.1307 15.5056C57.4922 15.5056 58.7378 15.2255 59.935 14.511C60.051 14.4532 60.0894 14.3276 60.0894 14.1634C60.0894 13.8641 59.9448 13.4392 59.7806 13.0241C59.5875 12.5028 59.3749 12.0394 59.095 12.0394C59.0468 12.0394 58.9984 12.049 58.9502 12.0778C58.1873 12.5413 57.4053 12.7537 56.5074 12.7537C55.5322 12.7537 54.7019 12.1648 54.5668 11.2572H60.2538C60.5433 11.2572 60.5529 10.8228 60.5529 10.3883C60.5529 7.53999 59.1915 5.271 56.1695 5.271Z" fill="#0E0F40"/>
<path d="M29.2627 12.1596C28.8351 12.5873 28.3194 12.801 27.7155 12.801C27.1115 12.801 26.5969 12.5873 26.172 12.1596C25.7468 11.7322 25.5342 11.2164 25.5342 10.6125C25.5342 10.0086 25.7468 9.49413 26.172 9.06894C26.5969 8.64391 27.1115 8.43131 27.7155 8.43131C28.3194 8.43131 28.8351 8.64391 29.2627 9.06894C29.6903 9.49413 29.9039 10.0086 29.9039 10.6125C29.9039 11.2164 29.6903 11.7322 29.2627 12.1596ZM33.0757 12.9906L33.0767 12.9835C32.8859 12.9292 32.8273 12.8839 32.7299 12.708C32.672 12.6034 32.6401 12.4708 32.6401 12.3074L32.6499 5.76434L32.644 5.76352V5.66301C32.5916 5.39144 32.0041 5.39062 31.4152 5.39062C30.7983 5.39062 30.1813 5.39062 30.1813 5.70308V6.24671C29.4349 5.80539 28.612 5.58465 27.7129 5.58465C26.8081 5.58465 25.9827 5.80669 25.2361 6.25078C24.4895 6.69503 23.8942 7.2903 23.4501 8.03691C23.0059 8.78352 22.7838 9.60914 22.7838 10.5136C22.7838 11.4238 23.0059 12.252 23.4501 12.9985C23.8942 13.7452 24.4895 14.3405 25.2361 14.7846C25.9827 15.2288 26.8081 15.4507 27.7129 15.4507C28.7538 15.4507 30.0406 15.0193 30.8962 14.4198C31.3153 14.9574 31.6995 15.2738 32.2868 15.3569C32.2868 15.3569 32.5938 15.3761 32.6965 15.3761C32.8356 15.3763 33.0381 15.3536 33.0381 15.3536C33.3103 15.3048 33.3142 14.8032 33.322 14.2144C33.3297 13.6348 33.3338 13.062 33.0757 12.9906Z" fill="#0E0F40"/>
<path d="M83.9751 9.37303C83.9751 8.53145 84.6321 7.84919 85.4428 7.84919C86.2533 7.84919 86.9103 8.53145 86.9103 9.37303H83.9751ZM85.6166 5.271C82.7393 5.271 80.7986 7.46277 80.7986 10.3401C80.7986 13.2558 82.6331 15.5056 85.5778 15.5056C86.9393 15.5056 88.1849 15.2255 89.3821 14.511C89.4981 14.4532 89.5365 14.3276 89.5365 14.1634C89.5365 13.8641 89.3918 13.4392 89.2276 13.0241C89.0346 12.5028 88.822 12.0394 88.5421 12.0394C88.4939 12.0394 88.4457 12.049 88.3973 12.0778C87.6344 12.5413 86.8524 12.7537 85.9545 12.7537C84.9793 12.7537 84.149 12.1648 84.0139 11.2572H89.7009C89.9904 11.2572 90 10.8228 90 10.3883C90 7.53999 88.6386 5.271 85.6166 5.271Z" fill="#00B6C9"/>
<path d="M18.9596 5.271C17.7526 5.271 16.9415 5.94674 16.314 6.81586V5.77308C16.314 5.38682 15.5512 5.38682 14.7885 5.38682C14.0257 5.38682 13.263 5.38682 13.263 5.77308V15.0035C13.263 15.3992 14.0643 15.3992 14.8753 15.3992C15.6315 15.3992 16.3786 15.3949 16.4777 15.0743V9.85101C16.4777 9.13095 17.0614 8.54725 17.7814 8.54725C18.5015 8.54725 19.0852 9.13095 19.0852 9.85101V15.0035C19.0852 15.3992 19.9059 15.3992 20.7073 15.3992C21.528 15.3992 22.2997 15.3992 22.2997 15.0035V9.36489C22.2997 6.80608 20.9775 5.271 18.9596 5.271Z" fill="#0E0F40"/>
<path d="M39.4928 5.271C38.2859 5.271 37.4747 5.94674 36.8472 6.81586V5.77308C36.8472 5.38682 36.0845 5.38682 35.3217 5.38682C34.559 5.38682 33.7963 5.38682 33.7963 5.77308V15.0035C33.7963 15.3992 34.5976 15.3992 35.4086 15.3992C36.1648 15.3992 36.9119 15.3949 37.0109 15.0743V9.85101C37.0109 9.13095 37.5946 8.54725 38.3147 8.54725C39.0348 8.54725 39.6185 9.13095 39.6185 9.85101V15.0035C39.6185 15.3992 40.4392 15.3992 41.2405 15.3992C42.0613 15.3992 42.833 15.3992 42.833 15.0035V9.36489C42.833 6.80608 41.5108 5.271 39.4928 5.271Z" fill="#0E0F40"/>
<path d="M76.9863 5.271C75.7794 5.271 74.9682 5.94674 74.3407 6.81586V5.77308C74.3407 5.38682 73.578 5.38682 72.8152 5.38682C72.0525 5.38682 71.2898 5.38682 71.2898 5.77308V15.0035C71.2898 15.3992 72.0911 15.3992 72.9021 15.3992C73.6583 15.3992 74.4054 15.3949 74.5044 15.0743V9.85101C74.5044 9.13095 75.0881 8.54725 75.8082 8.54725C76.5283 8.54725 77.112 9.13095 77.112 9.85101V15.0035C77.112 15.3992 77.9327 15.3992 78.734 15.3992C79.5548 15.3992 80.3265 15.3992 80.3265 15.0035V9.36489C80.3265 6.80608 79.0043 5.271 76.9863 5.271Z" fill="#00B6C9"/>
</svg>
