<svg width="84" height="22" viewBox="0 0 84 22" fill="none" xmlns="http://www.w3.org/2000/svg">
<path d="M8.40776 13.4328C6.84097 13.472 5.1175 12.8061 4.04033 11.6898C2.92399 10.5343 2.78689 8.96747 0.867569 9.28083C0.456286 9.35917 0.0254172 9.80963 0.00583229 10.0251C0.00583229 10.0642 0.00583229 10.0642 0.00583229 10.1034V18.7795C0.00583229 18.7795 -0.248771 21.9914 3.33527 21.9914C3.58987 21.9914 3.66821 21.776 3.66821 21.541V14.5688C3.66821 14.5688 4.70621 15.078 6.56678 15.0192C11.5413 14.8625 12.8535 10.9455 12.8535 8.00781C12.7556 10.6518 11.3651 13.3937 8.40776 13.4328Z" fill="#006845"/>
<path d="M36.0031 0.584493C36.0031 0.584493 33.0262 0.427814 31.2048 2.22963C30.206 3.20887 29.5988 4.67774 29.5401 5.6374V5.87242C29.5401 7.02793 31.1656 7.49797 32.2232 6.8125C33.6529 5.85284 33.5158 4.57982 35.6114 4.44272C37.7658 4.30563 38.745 6.18578 38.745 7.98759C38.745 9.7894 37.7658 11.6696 35.6114 11.5325C33.5158 11.3954 33.6725 10.1223 32.2232 9.16269C31.1852 8.47721 29.5401 8.98642 29.5401 10.1028V18.7789C29.5401 18.7789 29.2855 21.9908 32.8695 21.9908C33.1241 21.9908 33.2025 21.7754 33.2025 21.5403V14.5681C33.2025 14.5681 34.2405 15.0773 36.101 15.0186C41.0952 14.8619 42.3878 10.9253 42.3878 7.98759C42.3878 5.16736 40.8014 0.760758 36.0031 0.584493ZM51.3577 0.584493C51.3577 0.584493 48.3808 0.427814 46.5594 2.22963C45.5606 3.20887 44.9534 4.67774 44.8947 5.6374V5.87242C44.8947 7.02793 46.5202 7.49797 47.5778 6.8125C49.0075 5.85284 48.8704 4.57982 50.966 4.44272C53.1203 4.30563 54.0996 6.18578 54.0996 7.98759C54.0996 9.7894 53.1203 11.6696 50.966 11.5325C48.8704 11.3954 49.0271 10.1223 47.5778 9.16269C46.5398 8.47721 44.8947 8.98642 44.8947 10.1028V18.7789C44.8947 18.7789 44.6401 21.9908 48.2241 21.9908C48.4787 21.9908 48.557 21.7754 48.557 21.5403V14.5681C48.557 14.5681 49.595 15.0773 51.4556 15.0186C56.4498 14.8619 57.7424 10.9253 57.7424 7.98759C57.7228 5.16736 56.1364 0.760758 51.3577 0.584493ZM82.9482 1.13287C82.341 1.05453 81.6164 0.995778 81.1463 0.995778C79.8929 0.995778 78.757 1.28955 77.6798 1.99461L77.5231 1.58333C77.4252 1.30914 77.1706 1.13287 76.8964 1.13287H75.3296C75.075 1.13287 74.8792 1.34831 74.8792 1.58333V14.2156C74.8792 14.4702 75.0946 14.666 75.3296 14.666H78.0715C78.3261 14.666 78.522 14.4506 78.522 14.2156V5.48072C79.0312 4.61899 79.8733 4.36438 80.7351 4.36438C81.1463 4.36438 81.538 4.42314 81.8906 4.46231C82.1647 4.50148 82.3998 4.36438 82.4977 4.10978L83.3007 1.60291C83.3398 1.42665 83.1832 1.17204 82.9482 1.13287ZM21.5494 0.976192C16.379 0.976192 14.7731 5.06944 14.7731 7.90925C14.7731 10.8274 16.379 14.8815 21.5494 14.8815C23.3904 14.8815 24.8593 14.2548 26.3673 13.0797C26.5632 12.923 26.6219 12.6292 26.4653 12.3942L25.2118 10.6903C25.0551 10.4749 24.7614 10.4357 24.5655 10.5924C23.6059 11.2191 22.5483 11.552 21.5494 11.552C19.7868 11.552 18.788 10.1615 18.5725 8.57514H26.6024C26.8765 8.57514 27.092 8.37929 27.092 8.12469C27.1507 7.67423 27.1899 7.26295 27.1899 6.8125C27.1703 3.28721 25.1727 0.976192 21.5494 0.976192ZM18.6705 6.40121C19.0817 5.14778 20.0218 4.24687 21.5494 4.24687C23.1162 4.28604 23.5079 5.28487 23.5275 6.40121H18.6705ZM66.6535 0.976192C61.4831 0.976192 59.8771 5.06944 59.8771 7.90925C59.8771 10.8274 61.4831 14.8815 66.6535 14.8815C68.4945 14.8815 69.9634 14.2548 71.4714 13.0797C71.6672 12.923 71.726 12.6292 71.5693 12.3942L70.3159 10.6903C70.1592 10.4749 69.8654 10.4357 69.6696 10.5924C68.7099 11.2191 67.6523 11.552 66.6535 11.552C64.8909 11.552 63.892 10.1615 63.6766 8.57514H71.7064C71.9806 8.57514 72.196 8.37929 72.196 8.12469C72.2548 7.67423 72.294 7.26295 72.294 6.8125C72.2744 3.28721 70.2571 0.976192 66.6535 0.976192ZM63.7745 6.40121C64.1858 5.14778 65.1259 4.24687 66.6535 4.24687C68.2203 4.28604 68.612 5.28487 68.6316 6.40121H63.7745ZM6.46906 0.584493C6.46906 0.584493 3.49216 0.427814 1.67076 2.22963C0.67193 3.20887 0.0647972 4.67774 0.00604248 5.6374V5.87242C0.00604248 7.02793 1.63159 7.49797 2.68918 6.8125C4.11888 5.85284 3.98178 4.57982 6.07737 4.44272C8.23171 4.30563 9.21095 6.18578 9.21095 7.98759C9.21095 9.7894 8.23171 11.6696 6.07737 11.5325C3.98178 11.3954 4.13846 10.1223 2.68918 9.16269C1.65118 8.47721 0.0647972 8.96684 0.00604248 10.0244C0.0452123 9.80899 0.476081 9.45646 0.867779 9.39771C2.7871 9.08435 2.84586 10.6316 3.98178 11.7871C5.07854 12.9034 6.84118 13.5889 8.40797 13.5497C11.3457 13.5105 12.8537 10.6707 12.8537 7.98759C12.8537 5.16736 11.2674 0.760758 6.46906 0.584493Z" fill="#DF0024"/>
</svg>
