<svg width="61" height="33" viewBox="0 0 61 33" fill="none" xmlns="http://www.w3.org/2000/svg">
<path d="M60.8188 0.77678C59.9472 2.6442 59.0507 4.45073 58.2092 6.2825C56.4264 10.163 54.6596 14.0509 52.9155 17.9489C52.4843 18.9125 51.8036 19.3649 50.7662 19.3479C49.9427 19.3345 49.118 19.324 48.2952 19.353C47.7888 19.3709 47.6111 19.1791 47.5758 18.6746C47.2534 14.0764 46.9083 9.47983 46.5709 4.88268C46.4697 3.50354 46.3719 2.12414 46.2667 0.66389C47.5774 0.66389 48.8758 0.66389 50.2981 0.66389C50.394 3.01992 50.5003 5.40993 50.5863 7.80066C50.6706 10.1441 50.7343 12.4882 50.9663 14.8653C51.0341 14.7419 51.1161 14.6241 51.1676 14.4942C52.8038 10.3747 54.4363 6.25372 56.071 2.13362C56.5883 0.829913 56.9495 0.583598 58.3622 0.58546C59.1194 0.586457 59.8765 0.605433 60.7262 0.622355C60.8188 0.628414 60.8188 0.727325 60.8188 0.77678Z" fill="#0669B0"/>
<path d="M41.7357 0.232422C41.8626 0.283466 41.891 0.373098 41.933 0.380041C44.599 0.820657 45.963 2.85194 45.2905 6.38472C44.0978 6.38472 42.8948 6.38472 41.6281 6.38472C41.6281 5.814 41.6308 5.26697 41.6274 4.71997C41.6231 4.01091 41.4186 3.40372 40.6858 3.14496C39.9062 2.86968 39.1338 2.95853 38.6145 3.61716C38.2186 4.11931 37.8703 4.7337 37.7304 5.35025C37.0909 8.17007 36.5243 11.0066 35.9543 13.8418C35.8777 14.2227 35.8863 14.6351 35.933 15.0236C36.0236 15.777 36.2796 16.4648 37.1357 16.6358C37.998 16.808 38.8375 16.6918 39.2962 15.8519C39.6365 15.2291 39.7679 14.4952 40.0693 13.8465C40.1885 13.59 40.506 13.2695 40.7505 13.2542C41.7965 13.1888 42.8489 13.2264 43.8915 13.2264C44.1787 16.3762 41.6876 19.3236 38.5563 19.5904C37.9671 19.6405 37.3686 19.644 36.7782 19.6073C33.4689 19.4015 31.5015 17.1983 32.0053 13.928C32.4847 10.8166 33.1728 7.72744 33.952 4.67521C34.5728 2.24363 36.2 0.708849 38.8232 0.298613C39.7882 0.232422 40.7159 0.232422 41.7357 0.232422Z" fill="#0569B0"/>
<path d="M0.680969 32.3537C1.06961 30.7377 1.56717 29.213 1.81194 27.6487C2.00279 26.4289 2.50461 25.9138 3.73473 25.6835C7.6324 24.9536 11.5033 24.081 15.6227 23.2134C15.2339 24.9939 14.9175 26.5185 14.5507 28.0308C14.5026 28.2289 14.2229 28.4442 14.0053 28.5171C9.61966 29.9879 5.22737 31.439 0.758688 32.8835C0.680969 32.7246 0.680969 32.5762 0.680969 32.3537Z" fill="#FFDD03"/>
<path d="M5.53359 10.221C6.18819 7.15024 6.80457 4.15609 7.46312 1.17124C7.5137 0.941982 7.86032 0.611691 8.07158 0.610009C10.1471 0.593483 12.2397 0.479564 14.2954 0.696605C18.2284 1.11185 18.4597 3.1348 18.0122 6.13899C17.7146 8.13745 16.5062 9.45446 14.4979 9.96076C14.2772 10.0164 14.064 10.1017 14.048 10.107C14.6537 10.5617 15.5633 10.938 15.9369 11.6115C16.308 12.2805 16.2485 13.2568 16.1855 14.0837C16.056 15.7842 15.7981 17.475 15.5815 19.265C14.3832 19.265 13.0628 19.265 11.5715 19.265C11.7948 17.6948 12.0101 16.1747 12.2286 14.6551C12.2473 14.5253 12.296 14.4 12.3165 14.2704C12.6483 12.178 11.494 11.142 9.42722 11.7173C9.23576 11.7706 9.05208 12.1165 8.998 12.3566C8.58624 14.1844 8.17636 16.0139 7.83106 17.855C7.64029 18.8722 7.09122 19.3484 6.0809 19.3458C5.29492 19.3438 4.50892 19.3454 3.60577 19.3454C4.25315 16.2637 4.87956 13.2818 5.53359 10.221ZM14.0921 5.81214C14.1156 3.88157 13.0884 3.02237 11.2253 3.44333C11.0556 3.48167 10.8344 3.68832 10.7968 3.85318C10.4346 5.44388 10.1066 7.04238 9.76796 8.64236C12.4437 9.00151 13.609 8.26795 14.0921 5.81214Z" fill="#0669B1"/>
<path d="M21.8559 15.101C21.4371 16.0275 20.9782 16.9384 20.6105 17.8847C20.2108 18.9134 19.4425 19.3571 18.4144 19.4115C17.597 19.4548 16.7755 19.4202 15.8586 19.4202C15.9603 19.1416 16.0164 18.9326 16.1092 18.7414C18.9184 12.9554 21.7395 7.17512 24.5303 1.3802C24.8063 0.807134 25.0888 0.532661 25.7709 0.564494C27.1474 0.62873 28.5289 0.583633 30.0553 0.583633C30.4129 6.82342 30.7677 13.0114 31.1266 19.2734C29.8343 19.2734 28.5732 19.2734 27.2447 19.2734C27.164 17.94 27.0833 16.6052 26.9421 15.1191C25.6059 14.9357 24.3301 14.8833 23.0543 14.8833C22.6548 14.8833 22.2553 15.0244 21.8559 15.101ZM26.3436 5.02785C25.2786 7.47468 24.2136 9.92151 23.0548 12.5837C24.4993 12.469 25.7104 12.3728 26.8234 12.2844C26.8234 9.54067 26.8234 6.93531 26.8234 4.32994C26.7582 4.31886 26.6931 4.30778 26.6279 4.29669C26.5501 4.49296 26.4723 4.68923 26.3436 5.02785Z" fill="#0669B0"/>
<path d="M17.8849 27.5174C17.2091 27.6756 16.6133 27.8164 15.8686 27.9923C16.2025 26.4242 16.4764 24.9862 16.8413 23.5718C16.903 23.3327 17.3416 23.0632 17.6318 23.0296C22.0978 22.5125 26.568 22.0321 31.2891 21.5156C31.0203 22.7482 30.848 23.7638 30.5473 24.7398C30.4818 24.9522 29.9687 25.0829 29.641 25.1498C25.7513 25.9443 21.8577 26.7197 17.8849 27.5174Z" fill="#FFDD03"/>
<path d="M43.8482 22.4264C43.8156 23.4673 43.3966 23.7729 42.3804 23.8351C39.1968 24.0301 36.024 24.4007 32.8467 24.7008C32.5608 24.7277 32.2732 24.7363 31.8674 24.7606C32.1043 23.6502 32.3196 22.6409 32.5586 21.5205C36.3958 21.5205 40.1756 21.5205 44.0301 21.5205C43.9774 21.7812 43.9205 22.0623 43.8482 22.4264Z" fill="#FFDD03"/>
<path d="M51.9075 23.604C49.5428 23.6038 47.2755 23.6038 44.9075 23.6038C45.0022 23.0766 45.0677 22.503 45.2247 21.9555C45.277 21.7731 45.5701 21.5236 45.7422 21.5319C49.0899 21.6935 52.436 21.8887 55.8195 22.0791C55.2999 23.7587 55.3005 23.7504 53.7819 23.6496C53.1912 23.6104 52.5973 23.6179 51.9075 23.604Z" fill="#FFDD04"/>
<path d="M21.9478 15.0934C22.2553 15.0239 22.6548 14.8828 23.0543 14.8828C24.3301 14.8828 25.6059 14.9352 26.9335 15.0325C25.3367 15.0939 23.6883 15.0901 21.9478 15.0934Z" fill="#005BAB"/>
<path d="M14.0829 5.89331C13.609 8.26738 12.4437 9.00095 9.76801 8.6418C10.1066 7.04182 10.4346 5.44332 10.7969 3.85262C10.8344 3.68775 11.0557 3.4811 11.2253 3.44277C13.0885 3.02181 14.1157 3.88101 14.0829 5.89331Z" fill="#F9FBFD"/>
<path d="M26.3691 4.95637C26.4723 4.68892 26.5501 4.49265 26.628 4.29639C26.6931 4.30747 26.7583 4.31855 26.8234 4.32963C26.8234 6.935 26.8234 9.54036 26.8234 12.2841C25.7105 12.3725 24.4993 12.4687 23.0548 12.5834C24.2136 9.9212 25.2786 7.47437 26.3691 4.95637Z" fill="#FAFCFD"/>
</svg>
