<svg width="90" height="28" viewBox="0 0 90 28" fill="none" xmlns="http://www.w3.org/2000/svg">
<g clip-path="url(#clip0_73_856)">
<path fill-rule="evenodd" clip-rule="evenodd" d="M69.2502 18.4479V22.4907H67.1636V13.6878C67.1636 13.6878 67.8809 13.5573 68.6633 14.7311C69.0546 14.2746 69.9023 13.6878 71.1412 13.6878C72.5758 13.6878 73.3583 14.405 73.3583 14.405C73.1626 14.7311 72.967 15.0571 72.8366 15.3831C72.641 15.7092 72.5106 16.0352 72.4454 16.4265C72.4454 16.4265 71.9237 15.97 71.2716 15.97C70.4891 15.9048 69.2502 16.4917 69.2502 18.4479ZM40.1677 21.5778C40.1677 22.2299 39.6461 22.7516 38.994 22.7516C38.3419 22.7516 37.8203 22.2299 37.8203 21.5778C37.8203 20.9258 38.3419 20.4041 38.994 20.4041C39.6461 20.4041 40.1677 20.9258 40.1677 21.5778ZM29.9954 16.4265C29.6042 16.4265 29.2781 16.2308 29.0173 15.8396C28.7565 15.3831 28.3 15.2527 27.7132 15.2527C27.2567 15.2527 26.5394 15.3831 26.5394 16.0352C26.5394 16.8829 27.7784 17.0133 28.9521 17.3394C30.191 17.6654 31.3648 18.1218 31.3648 19.752C31.3648 21.9691 29.6042 22.7516 27.8436 22.7516C26.083 22.7516 24.3224 22.0343 24.192 19.752H26.2134C26.2134 20.7953 26.9959 21.1866 27.8436 21.1866C28.4956 21.1866 29.2129 20.9258 29.2129 20.1433C29.2129 19.426 28.3 19.1652 26.8002 18.8391C25.5613 18.5131 24.3224 18.0566 24.3224 16.5569C24.3224 14.3398 26.0178 13.753 27.7132 13.753C29.4085 13.753 30.9735 14.405 31.1691 16.4917L29.9954 16.4265ZM79.4225 14.6007C79.8138 14.079 80.2702 13.6878 80.7267 13.6878V21.9691C80.7267 23.3384 80.2702 25.7511 76.749 25.7511C75.2493 25.7511 73.4235 24.9686 73.2931 22.9472H74.7276C75.1189 22.9472 75.4449 23.1428 75.6405 23.4688C75.9666 23.9253 76.423 24.1209 77.0099 24.1209C78.1836 24.1209 78.7705 23.208 78.7053 21.9691V20.9258H78.6401C78.1836 21.8387 77.2707 22.2299 76.2926 22.2299C73.9451 22.2299 72.967 20.2737 72.967 17.9262C72.967 15.3179 74.4668 13.6225 76.8143 13.6225C77.8576 13.6878 78.7053 14.0138 79.4225 14.6007ZM78.7053 18.1218C78.7053 16.7525 78.314 15.5136 76.9447 15.5136C75.7057 15.5136 75.1841 16.6873 75.1841 17.9914C75.1841 19.2304 75.5753 20.5345 76.9447 20.5345C78.0532 20.4693 78.7053 19.3608 78.7053 18.1218ZM89.3993 19.8172C88.8124 21.8387 87.5735 22.6864 85.7477 22.6864C83.335 22.6864 81.77 20.7953 81.77 18.1871C81.77 15.644 83.335 13.6225 85.7477 13.6225C88.3559 13.6225 89.6601 16.1004 89.4645 18.7087H83.8566C83.9218 20.2085 84.5739 20.9258 85.7477 20.9258C86.3345 20.9258 86.8562 20.6649 87.2474 20.2085C87.443 19.9477 87.7691 19.8172 88.0951 19.752L89.3993 19.8172ZM87.443 17.3394C87.2474 16.1656 86.791 15.5136 85.7477 15.5136C84.3783 15.5136 83.9871 16.6873 83.9871 17.3394H87.443ZM46.8841 14.6007C47.2753 14.079 47.7318 13.6878 48.1882 13.6878V21.9691C48.1882 23.3384 47.797 25.7511 44.2106 25.7511C42.7108 25.7511 40.885 24.9686 40.7546 22.9472H42.1892C42.5804 22.9472 42.9065 23.1428 43.1021 23.4688C43.4281 23.9253 43.8846 24.1209 44.4714 24.1209C45.6452 24.1209 46.232 23.208 46.1668 21.9691V20.9258H46.1016C45.6452 21.8387 44.7323 22.2299 43.7541 22.2299C41.4067 22.2299 40.4286 20.2737 40.4286 17.9262C40.4286 15.3179 41.9283 13.6225 44.2758 13.6225C45.3843 13.6878 46.232 14.0138 46.8841 14.6007ZM46.232 18.1218C46.232 16.7525 45.8408 15.5136 44.4714 15.5136C43.2325 15.4483 42.7108 16.6221 42.7108 17.9262C42.7108 19.1652 43.1021 20.4693 44.4714 20.4693C45.58 20.4693 46.232 19.3608 46.232 18.1218ZM62.0774 13.6878C64.4901 13.6878 66.055 15.5136 66.055 18.2523C66.055 20.991 64.4901 22.7516 62.0774 22.7516C59.6647 22.7516 58.0998 20.9258 58.0998 18.2523C58.0345 15.5136 59.6647 13.6878 62.0774 13.6878ZM62.0774 20.9258C63.512 20.9258 63.9684 19.5564 63.9684 18.1871C63.9684 16.8177 63.5772 15.3831 62.0774 15.3831C60.6428 15.3831 60.2516 16.7525 60.2516 18.1871C60.1864 19.5564 60.5776 20.9258 62.0774 20.9258ZM56.8608 19.8172C56.2739 21.8387 55.035 22.6864 53.2092 22.6864C50.7965 22.6864 49.2316 20.7953 49.2316 18.1871C49.2316 15.644 50.7965 13.6225 53.2092 13.6225C55.8175 13.6225 57.1216 16.1004 56.926 18.7087H51.3834C51.4486 20.2737 52.1659 20.9258 53.3396 20.9258C53.9265 20.9258 54.4481 20.6649 54.8394 20.2085C55.035 19.9477 55.361 19.8172 55.6871 19.752L56.8608 19.8172ZM54.8394 17.3394C54.6438 16.1656 54.1873 15.5136 53.144 15.5136C51.7746 15.5136 51.3834 16.6873 51.3834 17.3394H54.8394ZM35.3424 13.9486H36.8422V14.405C36.8422 14.9919 36.3857 15.4483 35.7989 15.4483H35.3424V19.6868C35.3424 20.4693 35.4728 20.7301 36.2553 20.7301C36.4509 20.7301 36.7118 20.7301 36.9074 20.6649V22.4907C36.5161 22.5559 36.0597 22.6212 35.6684 22.6212C34.3643 22.6212 33.2558 22.2951 33.2558 20.5997V15.5136H31.9516V15.0571C31.9516 14.4702 32.4081 14.0138 32.9949 14.0138H33.1906V11.4707H34.2339C34.8207 11.4707 35.2772 11.9272 35.2772 12.514L35.3424 13.9486Z" fill="#E30000"/>
<path fill-rule="evenodd" clip-rule="evenodd" d="M21.3228 21.0562C22.3009 22.6211 23.9963 23.7297 25.7569 23.9905C28.8869 24.3817 31.8212 22.882 34.9511 24.0557C36.4509 24.5773 37.6246 25.425 38.4071 26.7292C37.7551 26.4684 37.3638 26.2727 36.5813 26.0119C35.212 25.5555 34.0382 25.7511 32.6689 25.9467C30.0606 26.3379 27.4523 27.1856 24.9092 25.9467C22.953 25.0338 21.7793 23.0776 21.3228 21.0562Z" fill="#FFCD00"/>
<path fill-rule="evenodd" clip-rule="evenodd" d="M17.9972 8.86279C18.1928 9.71049 17.9972 10.493 17.8668 11.5363C17.7364 12.384 17.9972 13.2317 18.8449 13.4925C19.497 13.6881 20.9315 13.6229 21.9749 14.5358C22.3009 14.8619 22.3661 14.9271 22.4313 15.3835C22.4965 15.6444 22.4313 16.0356 22.3661 16.2312C22.1053 16.9485 21.8444 17.6658 21.388 18.2526C20.6707 19.0351 19.9534 19.8176 19.0405 20.1437C17.2799 20.7305 16.2366 18.9699 14.8673 18.1874C14.2804 17.8614 13.5631 17.6658 12.9762 18.2526C12.0633 19.1655 12.1938 20.5349 12.6502 21.5782C13.6283 23.4692 15.5193 25.0994 16.8887 26.4688C14.476 27.1208 11.9981 27.7729 9.58547 27.0556C8.41173 26.7296 7.36842 25.295 6.91197 24.1865C6.06427 22.3607 5.54261 18.057 1.30414 14.9923C3.39077 15.2531 4.30367 15.4487 5.67303 14.5358C5.99906 14.3402 6.06427 13.949 6.06427 13.5577C5.86865 12.058 4.62971 11.2755 3.84722 10.2321C4.43409 10.4278 5.02095 10.6234 5.60782 10.6886C6.45552 10.819 7.36842 10.6234 8.0857 10.1669C10.5636 8.66717 7.69445 5.21118 7.69445 5.21118C7.69445 5.21118 10.3027 7.1674 11.9329 6.84137C12.5198 6.71095 12.911 6.51533 13.1719 6.05888C13.8891 4.81994 14.5412 3.581 15.0629 2.27686C14.9325 3.45059 14.8021 4.75473 15.1281 5.86326C15.4541 6.90657 16.367 7.1674 17.2147 7.75427C17.5408 7.88468 17.8668 8.21072 17.9972 8.86279Z" fill="#78BE20"/>
<path fill-rule="evenodd" clip-rule="evenodd" d="M13.4327 10.4275C13.0415 11.0144 13.1067 11.9273 13.824 11.9925C14.2804 11.9925 14.8021 11.7969 14.9977 11.2752C15.1281 10.8188 14.9325 10.3623 14.6065 10.0363C14.2152 9.84065 13.7588 9.97106 13.4327 10.4275Z" fill="white"/>
<path fill-rule="evenodd" clip-rule="evenodd" d="M20.1491 15.6443C19.8882 15.7747 19.6274 16.1008 19.7578 16.3616C19.8882 16.6876 20.2143 16.7528 20.5403 16.492C20.6707 16.3616 20.6707 16.2312 20.7359 16.1008C20.7359 15.9051 20.6055 15.6443 20.3447 15.5791C20.2143 15.5791 20.1491 15.6443 20.1491 15.6443Z" fill="white"/>
<path fill-rule="evenodd" clip-rule="evenodd" d="M20.4099 15.3181C20.5403 15.3181 20.7359 15.4485 20.8664 15.5137C20.9968 15.6441 20.9968 15.9702 20.7359 16.231C20.4751 16.4266 20.2143 16.4918 19.9535 16.231C19.823 16.1006 19.823 15.7745 19.9535 15.5137C20.1491 15.3833 20.2143 15.3181 20.4099 15.3181ZM14.2804 17.4047C15.6498 17.6003 16.1062 18.448 17.0843 19.3609C17.8016 20.013 18.5841 20.4695 19.6926 20.2738C19.5622 21.0563 18.5841 21.3172 17.7364 21.1215C16.3018 20.9259 16.041 19.8174 15.1281 18.7741C14.476 18.0568 13.3675 18.1872 12.6502 19.1001C11.7373 20.2086 12.6502 22.1648 13.3675 23.0777C14.0848 23.9254 14.8021 24.7079 15.6498 25.4904C15.6498 25.4904 16.7583 26.5337 17.3452 27.3814C15.1281 26.2729 13.6283 25.2296 12.0634 23.2734C11.3461 22.2953 11.1505 21.5128 11.0853 20.5347C11.1505 19.6218 11.2157 18.9697 11.8025 18.2524C12.4546 17.4699 13.3023 17.2743 14.4108 17.4699L14.2804 17.4047ZM17.1495 16.4266C18.3885 17.4047 19.7578 17.9264 21.1272 18.5132C20.9968 19.0349 20.8012 19.1001 20.4099 19.4913C19.4318 19.2305 18.4537 18.7741 17.8016 18.1872C16.8887 17.4047 16.2366 16.6874 15.9106 15.5137C16.4975 15.6441 16.7583 16.1006 17.1495 16.4266ZM8.80301 11.3404C9.25946 10.6884 9.78112 10.0363 10.368 9.44942C10.3028 10.0363 10.0419 10.6232 9.78112 11.1448C8.47697 13.9487 7.36845 15.8397 6.912 19.5566C6.52075 23.0777 7.30324 24.8383 7.89011 25.6208C8.02052 25.8817 7.95531 26.5337 7.62928 26.8598C7.30324 27.3162 6.45555 26.7946 6.45555 26.7946L6.12951 25.9469C5.80347 24.7731 5.60785 23.5342 5.54264 22.2953C5.34702 18.448 6.45555 14.666 8.80301 11.3404ZM15.3237 11.6013C14.9325 12.0577 14.3456 12.1229 13.9544 11.7317C13.6936 11.5361 13.5631 11.1448 13.6936 10.884C13.824 10.4275 14.2804 10.3623 14.2804 10.3623C14.2804 10.3623 14.2152 10.2319 13.8892 10.2319C13.6283 10.2971 13.4327 10.2971 13.1719 10.3623C13.3023 10.1015 13.6283 10.0363 13.7588 9.97108C14.15 9.84067 14.5413 9.90587 14.9325 10.1015C15.5194 10.2971 15.7802 11.0796 15.3237 11.6013ZM14.8021 6.71072C15.3237 7.23237 15.9758 7.428 16.5627 7.88445C17.1495 8.27569 17.5408 8.66693 17.7364 9.31901C17.9972 10.2319 17.606 11.21 17.606 12.1229C17.7364 13.7531 18.8449 13.6879 20.2143 13.7531C21.062 13.8183 22.5617 14.4704 22.3661 15.7093C22.3009 16.231 22.2357 16.557 21.9097 16.9483C21.5184 17.2091 21.1272 17.4047 20.8012 17.0787C21.5184 16.8831 21.7793 16.6222 21.7793 15.8397C21.8445 15.4485 21.5836 15.0573 21.388 14.9268C21.1272 14.666 20.6707 14.2748 19.6274 14.34C18.8449 14.34 18.1277 14.4052 17.4104 13.8835C17.0191 13.6227 16.8887 13.4271 16.6931 12.9706C16.2366 11.9273 16.8235 10.7536 16.6931 9.77546C16.6279 9.2538 16.041 8.73214 15.5846 8.40611C14.8673 7.94965 14.0196 7.68883 13.4979 6.77592C12.7807 5.47178 13.3675 3.9068 14.2152 2.60266C14.4108 3.9068 13.824 5.53698 14.8021 6.71072ZM4.89057 18.1872C5.21661 18.8393 5.34702 19.1653 5.28181 19.9478C5.21661 20.4043 4.82536 20.6651 4.49933 20.9259C4.49933 20.9259 4.82536 19.8826 4.36891 19.0349C3.71684 17.7308 3.19518 17.796 0.586888 16.8178C0.260851 16.6874 -0.0651855 16.2962 -0.0651855 16.231C-0.0651855 16.1658 2.02145 16.557 3.06476 16.8831C3.71684 17.0135 4.56453 17.6003 4.89057 18.1872ZM3.84725 11.4708C4.49933 11.8621 5.08619 12.2533 5.60785 12.775C6.19472 13.3619 6.912 14.7964 5.99909 15.9049C5.60785 16.3614 5.02098 16.557 4.43412 16.557C3.52122 16.6222 2.41269 16.2962 1.82583 15.8397C1.95624 15.8397 3.91246 16.231 4.89057 15.7093C5.21661 15.5789 5.54264 15.1877 5.28181 14.34C5.02099 13.2314 3.97767 12.3838 2.28228 11.2752C2.08666 11.1448 1.95624 10.884 1.89103 10.6232C1.76062 10.5579 2.80394 10.8188 3.84725 11.4708ZM5.67306 11.7317C5.67306 11.7317 5.08619 11.21 4.82536 10.884C5.54264 11.2752 6.84679 11.7317 7.17283 11.0144C7.30324 10.6884 7.30324 10.2971 7.23803 9.90587C6.912 8.27569 6.0643 6.64551 5.41223 5.08053C6.84679 5.86302 7.89011 7.62362 8.28135 9.57984C8.41177 10.2971 8.41176 11.5361 7.75969 11.9925C7.10762 12.3838 6.25992 12.2533 5.67306 11.7317ZM10.1724 7.03675C11.4113 6.90634 11.4113 5.73261 11.5417 4.8197C11.7373 3.97201 12.0634 3.18952 12.585 2.53745C13.0415 2.01579 13.2371 1.82017 13.5631 1.36372C14.4108 0.3204 14.9325 0.0595703 14.9325 0.0595703C14.9325 0.0595703 13.1719 2.86348 12.8459 4.29805C12.5198 5.53698 12.9111 7.03675 11.5417 7.81924C10.368 8.47131 9.19425 7.94965 8.41176 7.23237C8.02052 6.84113 7.69448 6.51509 7.56407 5.92823C8.34656 6.38468 9.12905 7.10196 10.1724 7.03675Z" fill="#004833"/>
</g>
<defs>
<clipPath id="clip0_73_856">
<rect width="89.5296" height="27.3219" fill="white" transform="translate(0 0.0595703)"/>
</clipPath>
</defs>
</svg>
