<svg width="90" height="18" viewBox="0 0 90 18" fill="none" xmlns="http://www.w3.org/2000/svg">
<path d="M0 0.210449C0.47743 0.41202 0.790833 1.64498 0.790833 1.64498L3.75186 11.9442C4.0932 13.2331 5.17315 13.9121 6.38184 13.9121H12.874C12.4091 13.829 11.8993 12.4592 11.8993 12.4592L8.6072 2.21512C8.13343 0.650373 7.33451 0.210449 6.12436 0.210449H0ZM27.4768 0.210449C26.2637 0.210449 25.4788 0.650373 25.0124 2.21512L21.7019 12.4592C21.7019 12.4592 21.1972 13.829 20.7272 13.9121H27.2194C28.4339 13.9121 29.5036 13.2331 29.8493 11.9442L32.8104 1.64498C32.8104 1.64498 33.1333 0.41202 33.6196 0.210449H27.4768ZM13.2051 0.284015V13.9121H20.4329V0.284015H13.2051Z" fill="#ED1A3A"/>
<path d="M55.8917 3.28174L53.041 3.55761V5.06571H51.8823V6.57381H53.041V11.2268C53.041 11.9588 53.1793 12.5076 53.4272 12.8821C53.6899 13.2676 54.0599 13.564 54.5675 13.7833C55.0744 14.0113 55.7946 14.1143 56.7193 14.1143C57.1114 14.1143 57.6411 14.0452 58.3194 13.8752V12.4039C57.9854 12.4694 57.6985 12.5143 57.455 12.5143C56.9415 12.5143 56.5435 12.4076 56.2779 12.1832C56.0138 11.9625 55.8917 11.5321 55.8917 10.8958V6.57381H58.1354V5.06571H55.8917V3.28174ZM37.5922 4.8634C36.4997 4.8634 35.5765 5.06571 34.8335 5.47032C34.086 5.87273 33.5328 6.423 33.1414 7.12555C32.7501 7.82884 32.5529 8.60276 32.5529 9.42449C32.5529 10.3161 32.7773 11.1548 33.2334 11.9073C33.6917 12.6665 34.3604 13.2175 35.2197 13.581C36.0723 13.9422 37.0654 14.1143 38.1991 14.1143C39.4034 14.1143 40.6636 13.9554 42.0061 13.6177V11.9625C40.8217 12.3149 39.7506 12.4959 38.806 12.4959C38.0689 12.4959 37.4965 12.3848 37.0588 12.1832C36.6226 11.9816 36.2658 11.7161 36.0105 11.374C35.7545 11.0319 35.6 10.5567 35.5323 9.95784H42.0429C42.0179 7.99952 41.6148 6.67018 40.8107 5.9485C40.0132 5.22976 38.9355 4.8634 37.5922 4.8634ZM47.5236 4.8634C46.0567 4.8634 44.9657 5.11206 44.2499 5.61745C43.5334 6.11182 43.1832 6.74963 43.1832 7.51177C43.1832 8.15327 43.4024 8.66014 43.8821 9.05666C44.3514 9.46495 45.0966 9.84455 46.089 10.1785L47.0454 10.4912C47.5324 10.6479 47.8855 10.8244 48.1305 10.9878C48.3644 11.1636 48.4799 11.3762 48.4799 11.6315C48.4799 11.9191 48.3181 12.1398 48.0017 12.3303C47.6876 12.5187 47.2565 12.6246 46.7327 12.6246C45.7359 12.6246 44.5397 12.3737 43.128 11.8889V13.6361C44.4242 13.9569 45.6954 14.1143 46.935 14.1143C48.3902 14.1143 49.4973 13.8303 50.2639 13.2683C51.0253 12.7085 51.4042 12.0648 51.4042 11.3188C51.4042 10.7516 51.1937 10.2595 50.7789 9.84749C50.3551 9.4392 49.4723 9.01987 48.1121 8.57848L47.2845 8.30261C46.7909 8.14959 46.4525 8.00172 46.2729 7.84282C46.0802 7.67803 45.9787 7.4794 45.9787 7.27269C45.9787 7.00343 46.1236 6.79451 46.4201 6.62898C46.7114 6.46052 47.1557 6.3715 47.7443 6.3715C48.5005 6.3715 49.4503 6.52452 50.5949 6.83129V5.17606C49.4076 4.96492 48.3843 4.8634 47.5236 4.8634ZM65.9334 4.8634C65.1573 4.8634 64.4753 5.02672 63.9104 5.34158C63.3446 5.6638 62.89 6.12285 62.531 6.75772V5.06571H59.6803V17.1305H62.531V12.9924C62.9143 13.3161 63.2549 13.5567 63.5425 13.6913C63.8361 13.8318 64.123 13.9473 64.4437 14.0224C64.7578 14.0952 65.119 14.1143 65.492 14.1143C66.8979 14.1143 67.9815 13.6464 68.7657 12.7166C69.5477 11.7911 69.9428 10.6449 69.9428 9.25896C69.9427 7.94434 69.5955 6.88279 68.8944 6.07724C68.1948 5.27096 67.2046 4.8634 65.9334 4.8634ZM75.2763 4.8634C73.9992 4.8634 72.7206 5.07454 71.4325 5.48871V7.14394C72.5624 6.61868 73.6777 6.35311 74.7613 6.35311C75.3108 6.35311 75.7662 6.44507 76.1223 6.62898C76.485 6.81878 76.6556 7.18808 76.6556 7.73247V8.5233H75.9016C74.0006 8.5233 72.6323 8.80948 71.7819 9.3877C70.9396 9.97329 70.5129 10.7075 70.5129 11.5763C70.5129 12.2877 70.7969 12.8799 71.3589 13.3786C71.9268 13.8679 72.6809 14.1143 73.621 14.1143C73.9859 14.1143 74.3243 14.0753 74.651 14.004C74.9739 13.9289 75.291 13.8384 75.5889 13.6913C75.8876 13.5427 76.2576 13.308 76.674 12.974H76.7844C76.9845 13.4449 77.2898 13.7465 77.6672 13.8936C78.046 14.0444 78.4985 14.1143 79.0281 14.1143C79.4923 14.1143 80.025 14.0503 80.6282 13.8936L80.5914 12.551C80.4333 12.5687 80.2935 12.5694 80.1868 12.5694C80.011 12.5694 79.8322 12.5135 79.6534 12.4039C79.4776 12.3009 79.396 12.0228 79.396 11.5395V7.62212C79.396 6.88131 79.2062 6.33693 78.8442 5.96689C78.4756 5.59538 77.9864 5.31878 77.3729 5.13928C76.7579 4.96272 76.0517 4.8634 75.2763 4.8634ZM86.5135 4.8634C84.6795 4.8634 83.2655 5.29671 82.3202 6.15081C81.3705 7.00491 80.904 8.12016 80.9041 9.47966C80.9041 10.7825 81.3484 11.8911 82.2466 12.7901C83.1419 13.6766 84.4889 14.1143 86.2744 14.1143C87.28 14.1143 88.3651 13.9944 89.5297 13.7281V12.0729C88.6447 12.3598 87.7906 12.5143 86.9549 12.5143C86.3781 12.5143 85.8536 12.3914 85.3916 12.1648C84.9311 11.936 84.5779 11.5778 84.3249 11.0797C84.0645 10.5824 83.9386 10.0402 83.9387 9.46127C83.9387 8.71678 84.1557 8.02453 84.6007 7.40143C85.0458 6.77612 85.7506 6.48185 86.7158 6.48185C87.397 6.48185 88.3129 6.63781 89.4561 6.96003V5.21284C88.346 4.97522 87.3668 4.8634 86.5135 4.8634ZM37.5002 6.3715C38.0056 6.3715 38.4176 6.53997 38.7324 6.88646C39.051 7.23149 39.2106 7.79942 39.2106 8.59687H35.4956C35.5846 7.86636 35.806 7.32197 36.1576 6.94164C36.5115 6.56204 36.9573 6.3715 37.5002 6.3715ZM64.8851 6.75772C65.5362 6.75772 66.0261 7.01226 66.3748 7.49338C66.7279 7.97303 66.9082 8.63292 66.9082 9.46127C66.9082 10.2727 66.7243 10.9811 66.3564 11.6131C65.9886 12.2399 65.4398 12.551 64.6828 12.551C64.3282 12.551 63.9751 12.4841 63.6345 12.3487C63.2909 12.2097 62.9238 11.9515 62.531 11.5763V8.1003C62.8775 7.68465 63.2446 7.3617 63.6529 7.12555C64.0648 6.88499 64.4827 6.75772 64.8851 6.75772ZM75.9935 9.90266H76.6556V11.6866C76.3091 11.9529 75.9678 12.142 75.6257 12.2752C75.2844 12.4142 74.9445 12.4959 74.6142 12.4959C74.2464 12.4959 73.9344 12.3804 73.6578 12.1648C73.3923 11.9485 73.2532 11.6778 73.2532 11.3372C73.2532 10.9245 73.485 10.5802 73.9337 10.3073C74.3854 10.0358 75.0696 9.90266 75.9935 9.90266Z" fill="#2D373C"/>
</svg>
