<svg width="86" height="28" viewBox="0 0 86 28" fill="none" xmlns="http://www.w3.org/2000/svg">
<path d="M16.0485 7.9707C16.0485 7.9707 9.75868 9.20431 8.19684 16.1966V27.1667C15.5964 25.3848 16.0271 16.9861 16.0482 15.6325L16.0485 7.9707Z" fill="#323F51"/>
<path d="M16.0485 7.9707H0.345154C0.345154 7.9707 6.63641 9.20466 8.19685 16.197C9.75869 9.20431 16.0485 7.9707 16.0485 7.9707Z" fill="#12EBD1"/>
<path d="M8.19685 16.1963C6.63641 9.20852 0.352526 7.97211 0.345154 7.9707V15.6321C0.366217 16.9872 0.796961 25.3844 8.19614 27.1664L8.19685 16.1963Z" fill="black"/>
<path d="M2.85448 12.7771C2.57425 13.0572 2.38339 13.4142 2.30605 13.8029C2.22871 14.1915 2.26836 14.5944 2.41998 14.9605C2.5716 15.3266 2.82839 15.6395 3.15787 15.8597C3.48735 16.0799 3.87472 16.1974 4.27099 16.1974C4.66726 16.1974 5.05462 16.0799 5.3841 15.8597C5.71358 15.6395 5.97037 15.3266 6.122 14.9605C6.27362 14.5944 6.31327 14.1915 6.23593 13.8029C6.15859 13.4142 5.96773 13.0572 5.68749 12.7771C5.31178 12.4014 4.80226 12.1904 4.27099 12.1904C3.73971 12.1904 3.23019 12.4014 2.85448 12.7771Z" fill="white"/>
<path d="M4.34408 14.5661C4.27036 14.5805 4.19402 14.5728 4.1247 14.5438C4.05539 14.5148 3.99622 14.466 3.95467 14.4034C3.91313 14.3408 3.89107 14.2673 3.8913 14.1922C3.89152 14.1171 3.91401 14.0437 3.95593 13.9814C3.99785 13.919 4.05731 13.8705 4.1268 13.842C4.19628 13.8134 4.27267 13.8061 4.34631 13.821C4.41994 13.8359 4.48751 13.8722 4.54048 13.9255C4.59345 13.9788 4.62943 14.0465 4.64388 14.1202C4.65348 14.1692 4.65334 14.2196 4.64347 14.2685C4.63359 14.3174 4.61418 14.3639 4.58634 14.4053C4.5585 14.4467 4.52278 14.4822 4.48121 14.5098C4.43964 14.5374 4.39305 14.5565 4.34408 14.5661Z" fill="black"/>
<path d="M10.6964 12.7771C10.4162 13.0572 10.2253 13.4142 10.148 13.8029C10.0706 14.1915 10.1103 14.5944 10.2619 14.9605C10.4135 15.3266 10.6703 15.6395 10.9998 15.8597C11.3293 16.0799 11.7166 16.1974 12.1129 16.1974C12.5092 16.1974 12.8965 16.0799 13.226 15.8597C13.5555 15.6395 13.8123 15.3266 13.9639 14.9605C14.1155 14.5944 14.1552 14.1915 14.0778 13.8029C14.0005 13.4142 13.8096 13.0572 13.5294 12.7771C13.1537 12.4014 12.6442 12.1904 12.1129 12.1904C11.5816 12.1904 11.0721 12.4014 10.6964 12.7771Z" fill="white"/>
<path d="M12.1859 14.5661C12.1122 14.5805 12.0358 14.5728 11.9665 14.5438C11.8972 14.5148 11.838 14.466 11.7965 14.4034C11.7549 14.3408 11.7329 14.2673 11.7331 14.1922C11.7333 14.1171 11.7558 14.0437 11.7977 13.9814C11.8396 13.919 11.8991 13.8705 11.9686 13.842C12.0381 13.8134 12.1145 13.8061 12.1881 13.821C12.2617 13.8359 12.3293 13.8722 12.3823 13.9255C12.4352 13.9788 12.4712 14.0465 12.4857 14.1202C12.4953 14.1692 12.4951 14.2196 12.4853 14.2685C12.4754 14.3174 12.456 14.3639 12.4281 14.4053C12.4003 14.4467 12.3646 14.4822 12.323 14.5098C12.2814 14.5374 12.2348 14.5565 12.1859 14.5661Z" fill="black"/>
<path d="M38.9626 8.00537H45.8679C45.1447 17.9838 41.5657 25.106 40.4448 27.1666H33.5757C33.178 25.7206 32.5998 23.0453 31.5873 19.0682C30.6486 23.047 30.0329 25.7206 29.6713 27.1666H22.8022C21.7174 25.106 18.1384 17.9838 17.3436 8.00537H24.2843C24.6098 14.0084 25.9476 20.2614 26.2007 20.5145C26.4535 20.1891 27.8275 14.0432 28.153 8.00537H35.0582C35.4198 14.0084 36.7212 20.2614 37.0104 20.5145C37.2997 20.1891 38.601 14.0432 38.9626 8.00537Z" fill="#12EBD1"/>
<path d="M47.1274 6.55913V0.232422H54.322V6.55913H47.1274ZM56.238 26.2624C55.5148 26.6602 53.7434 27.1664 52.2613 27.1664C49.2966 27.1664 47.2359 26.154 47.2359 20.4058V8.00513H54.105V20.3696C54.105 21.3817 54.1773 21.6334 54.5751 21.6334C54.6474 21.6334 54.792 21.5983 55.3706 21.4888L56.238 26.2624Z" fill="#12EBD1"/>
<path d="M71.3857 13.1033C69.9397 12.8863 69.0357 12.7779 67.5897 12.7779C65.7098 12.7779 64.4081 12.9587 64.4081 13.718C64.4081 15.5617 72.3258 13.5734 72.3258 21.2018C72.3258 27.3839 66.8304 27.5285 64.2996 27.5285C61.263 27.5285 58.6238 27.2754 57.1774 27.0223L57.5043 21.9969C59.2395 22.1777 61.5895 22.3947 63.072 22.3947C64.4095 22.3947 65.3496 22.2139 65.3496 21.4907C65.3496 19.3938 57.4319 21.3103 57.4319 13.9349C57.4319 7.78868 62.9274 7.64404 65.6389 7.64404C68.3143 7.64404 70.4484 7.78868 71.7473 8.07795L71.3857 13.1033Z" fill="#12EBD1"/>
<path d="M84.9325 13.5372C84.1889 13.4449 83.4404 13.3966 82.691 13.3926C81.9678 13.3945 81.2489 13.5042 80.558 13.718V27.1669H73.7251V9.70473C75.5688 8.40337 78.6416 7.64404 81.2809 7.64404C82.9803 7.64404 83.8478 7.71636 85.8723 8.15026L84.9325 13.5372Z" fill="#12EBD1"/>
</svg>
