<svg width="57" height="21" viewBox="0 0 57 21" fill="none" xmlns="http://www.w3.org/2000/svg">
<path d="M1.74896 16.8208L2.24006 20.8219H19.4339L18.8712 16.2397H10.8543L10.7842 15.6719L18.1678 10.5124L17.6744 6.50391H0.482117L1.04475 11.0853H9.07496L9.14501 11.6583L1.74896 16.8208Z" fill="black"/>
<path d="M19.6721 6.50391L21.4308 20.8219H38.6371L36.8784 6.50391H19.6721Z" fill="#AA8FFF"/>
<path d="M56.6804 11.658C56.2836 8.43997 53.7559 6.48958 50.3196 6.50351H38.8745L40.6325 20.8223H45.7817L45.4292 17.9582H50.8778C55.1658 17.9575 57.128 15.2859 56.6804 11.658ZM50.3211 13.9439L44.9381 13.9498L44.5163 10.5135L49.9295 10.5179C51.2023 10.5334 51.8534 11.2502 51.9588 12.2309C52.0237 12.8621 51.7347 13.9431 50.3211 13.9431V13.9439ZM24.8127 4.60109C25.7183 3.62894 25.5604 2.00999 24.4601 0.985076C23.3599 -0.0398465 21.7338 -0.0826256 20.8282 0.889525C19.9226 1.86167 20.0805 3.48061 21.1808 4.50554C22.2811 5.53046 23.9072 5.57324 24.8127 4.60109Z" fill="black"/>
</svg>
