<svg width="16" height="19" viewBox="0 0 16 19" fill="none" xmlns="http://www.w3.org/2000/svg">
<path d="M8.41314 3.55237L7.16704 3.54982C4.32465 3.54302 1.8571 5.85247 1.83755 8.64981V11.8713C1.83755 12.5428 1.75255 13.1982 1.3862 13.7566L1.14225 14.1289C0.770801 14.6933 1.1703 15.4498 1.83755 15.4498H13.763C14.4303 15.4498 14.8289 14.6933 14.4583 14.1289L14.2144 13.7566C13.8489 13.1982 13.763 12.542 13.763 11.8705V8.65066C13.729 5.85247 11.2555 3.55917 8.41314 3.55237V3.55237Z" stroke="#1E3A4B" stroke-width="1.5" stroke-linecap="round" stroke-linejoin="round"/>
<path d="M10.3505 15.4502C10.3505 16.1265 10.0818 16.7751 9.6036 17.2533C9.12539 17.7315 8.47678 18.0002 7.80048 18.0002C7.12418 18.0002 6.47558 17.7315 5.99736 17.2533C5.51915 16.7751 5.25049 16.1265 5.25049 15.4502" stroke="#1E3A4B" stroke-width="1.5" stroke-linecap="round" stroke-linejoin="round"/>
<path d="M7.8004 1C8.25127 1 8.68367 1.17911 9.00248 1.49792C9.32129 1.81673 9.5004 2.24913 9.5004 2.7V3.55H6.1004V2.7C6.1004 2.24913 6.27951 1.81673 6.59832 1.49792C6.91713 1.17911 7.34953 1 7.8004 1Z" stroke="#1E3A4B" stroke-width="1.5" stroke-linecap="round" stroke-linejoin="round"/>
</svg>
