<svg width="13" height="16" viewBox="0 0 13 16" fill="none" xmlns="http://www.w3.org/2000/svg">
<g clip-path="url(#clip0_165_969)">
<path fill-rule="evenodd" clip-rule="evenodd" d="M5.14728 15.0988C4.63185 14.6746 3.85399 13.9874 3.07495 13.1201C2.19197 12.1374 1.48589 11.1271 0.97752 10.1183C0.328717 8.83178 0 7.5426 0 6.28663C0 4.60836 0.675477 3.0301 1.90248 1.84282C3.13026 0.654401 4.76325 0 6.5002 0C8.23714 0 9.87013 0.654401 11.0979 1.84282C12.3245 3.0301 13.0004 4.60836 13.0004 6.28701C13.0004 7.54298 12.6717 8.83215 12.0229 10.1187C11.5141 11.1275 10.8084 12.1377 9.92544 13.1205C9.1464 13.9877 8.36855 14.675 7.85311 15.0992C7.71778 15.2105 6.72379 16.0004 6.49941 16.0004C6.27504 16.0004 5.27947 15.2079 5.14767 15.0992L5.14728 15.0988ZM6.5002 1.31371C5.12963 1.31371 3.84065 1.83036 2.87098 2.76894C1.90012 3.70827 1.36586 4.95745 1.36586 6.28663C1.36586 8.70195 2.85725 10.8686 4.10817 12.2608C4.83151 13.0658 5.55523 13.7051 6.03497 14.0998C6.19305 14.2296 6.34878 14.3534 6.5002 14.4689C6.65161 14.3534 6.80734 14.2296 6.96542 14.0998C7.44516 13.7051 8.16888 13.0658 8.89222 12.2608C10.1431 10.8686 11.6345 8.70158 11.6345 6.28663C11.6345 4.95745 11.0999 3.70827 10.1294 2.76894C9.15974 1.83074 7.87116 1.31371 6.5002 1.31371Z" fill="#1E3A4B"/>
<path d="M6.10409 10.916V10.2744C5.54315 10.2114 5.14187 10.0212 4.90023 9.70383C4.6586 9.38682 4.53778 8.92828 4.53778 8.32823V8.0916H6.09507V8.27237C6.09507 8.7143 6.2351 8.93545 6.51557 8.93545C6.63208 8.93545 6.72386 8.89243 6.79094 8.80639C6.85802 8.72034 6.89175 8.60674 6.89175 8.46635C6.89175 8.36597 6.79918 8.21652 6.61442 8.01839L5.32545 6.77412C4.85394 6.32049 4.61819 5.82837 4.61819 5.29737C4.61819 4.90979 4.75156 4.56976 5.0187 4.2769C5.28583 3.98404 5.64749 3.79912 6.10409 3.72138V3.2002H6.87842V3.70817C7.37345 3.76855 7.75787 3.96593 8.03089 4.3003C8.3039 4.63467 8.44041 5.09169 8.44041 5.67175H6.84272L6.8337 5.30568C6.82781 5.22529 6.7882 5.15585 6.71523 5.09698C6.64227 5.0381 6.55911 5.00867 6.46693 5.00867C6.36259 5.00867 6.27355 5.03961 6.20059 5.10113C6.12762 5.16302 6.09075 5.24265 6.09075 5.34002C6.09075 5.48343 6.23863 5.6959 6.53401 5.97744L7.7869 7.16585C8.00774 7.37531 8.17563 7.61005 8.29056 7.86969C8.4055 8.12934 8.46277 8.39012 8.46277 8.65128C8.46277 8.91243 8.40471 9.17095 8.28821 9.4004C8.17171 9.63024 7.99205 9.82535 7.74885 9.98612C7.50565 10.1469 7.21537 10.2458 6.87842 10.2831V10.916H6.10409Z" fill="#1E3A4B"/>
</g>
<defs>
<clipPath id="clip0_165_969">
<rect width="13" height="16" fill="white"/>
</clipPath>
</defs>
</svg>
