<svg width="42" height="45" viewBox="0 0 42 45" fill="none" xmlns="http://www.w3.org/2000/svg">
<path d="M38.8137 44.4091V40.9338L38.9791 40.8134C40.4535 39.7152 41.4014 37.9549 41.4164 35.969V34.1035V30.9892C41.4164 30.3423 40.8898 29.8007 40.2429 29.7856C39.596 29.7856 39.0544 30.2972 39.0544 30.9591" stroke="#1E3A4B" stroke-linecap="round" stroke-linejoin="round"/>
<path d="M31.6824 34.5248L29.516 30.6734C29.185 30.0866 28.4328 29.876 27.846 30.1919C27.2593 30.5229 27.0486 31.2752 27.3796 31.8619L30.1027 38.6471C30.1027 38.6471 30.524 40.3923 31.6222 40.7383L31.9833 40.8887V44.3942" stroke="#1E3A4B" stroke-linecap="round" stroke-linejoin="round"/>
<path d="M31.6825 34.5248L31.7577 25.1068C31.7577 24.4298 32.3294 23.8882 33.0064 23.8882C33.6834 23.8882 34.2401 24.4599 34.2251 25.1219V26.867V30.8238" stroke="#1E3A4B" stroke-linecap="round" stroke-linejoin="round"/>
<path d="M34.225 34.0282L34.2551 29.8608C34.2551 29.2139 34.8118 28.6723 35.4888 28.6873C36.1658 28.6873 36.7074 29.2289 36.7074 29.8909V34.314" stroke="#1E3A4B" stroke-linecap="round" stroke-linejoin="round"/>
<path d="M36.7073 30.3723C36.7073 29.7254 37.2489 29.1837 37.8959 29.1988C38.5428 29.1988 39.0694 29.7404 39.0694 30.4024V34.5096" stroke="#1E3A4B" stroke-linecap="round" stroke-linejoin="round"/>
<path d="M7.15961 17.9756V15.2676H9.80748" stroke="#1E3A4B" stroke-linecap="round" stroke-linejoin="round"/>
<path d="M27.9665 15.2676H30.6595V17.9305" stroke="#1E3A4B" stroke-linecap="round" stroke-linejoin="round"/>
<path d="M9.85261 32.6593H7.15961V29.876" stroke="#1E3A4B" stroke-linecap="round" stroke-linejoin="round"/>
<path d="M24.9425 30.7636H10.0482C9.4464 30.7636 8.96497 30.2822 8.96497 29.6804V18.2614C8.96497 17.6597 9.4464 17.1782 10.0482 17.1782H27.8461C28.4479 17.1782 28.9293 17.6597 28.9293 18.2614V27.7547" stroke="#1E3A4B" stroke-linecap="round" stroke-linejoin="round"/>
<path d="M14.8023 22.6243H13.1023C12.4403 22.6243 11.8987 22.0376 11.8987 21.3305C11.8987 20.6234 12.4403 20.0366 13.1023 20.0366H14.8023C15.4643 20.0366 16.0059 20.6234 16.0059 21.3305" stroke="#1E3A4B" stroke-linecap="round" stroke-linejoin="round"/>
<path d="M13.1023 22.6243H14.8023C15.4643 22.6243 16.0059 23.211 16.0059 23.9181C16.0059 24.6252 15.4643 25.212 14.8023 25.212H13.1023C12.4403 25.212 11.8987 24.6252 11.8987 23.9181" stroke="#1E3A4B" stroke-linecap="round" stroke-linejoin="round"/>
<path d="M13.9598 19.4351V25.9344" stroke="#1E3A4B" stroke-linecap="round" stroke-linejoin="round"/>
<path d="M19.2556 20.4578H26.2213" stroke="#1E3A4B" stroke-miterlimit="10"/>
<path d="M19.2556 23.0305H26.2213" stroke="#1E3A4B" stroke-miterlimit="10"/>
<path d="M19.2556 25.5735H26.2213" stroke="#1E3A4B" stroke-miterlimit="10"/>
<path d="M26.4468 34.9308H2.17967C1.27699 34.9158 0.539795 34.1936 0.539795 33.321V14.47C0.539795 13.5974 1.27699 12.8752 2.17967 12.8752H39.7163C40.619 12.8752 41.3562 13.5974 41.3562 14.47V28.612" stroke="#1E3A4B" stroke-linecap="round" stroke-linejoin="round"/>
<path d="M36.0604 26.551V12.9656" stroke="#1E3A4B" stroke-linecap="round" stroke-linejoin="round"/>
<path d="M2.91693 26.0994V21.7515" stroke="#1E3A4B" stroke-linecap="round" stroke-linejoin="round"/>
<path d="M37.7004 22.549V25.0615C37.7004 25.5684 38.1113 25.9792 38.6181 25.9792H38.7535C39.2604 25.9792 39.6712 25.5684 39.6712 25.0615V22.549C39.6712 22.0422 39.2604 21.6313 38.7535 21.6313H38.6181C38.1113 21.6313 37.7004 22.0422 37.7004 22.549Z" stroke="#1E3A4B" stroke-linecap="round" stroke-linejoin="round"/>
<path d="M5.02319 34.9311V12.9958" stroke="#1E3A4B" stroke-linecap="round" stroke-linejoin="round"/>
<path d="M12.0641 6.87205H10.2136C9.49141 6.87205 8.90466 6.24017 8.90466 5.47289C8.90466 4.70561 9.49141 4.07373 10.2136 4.07373H12.0641C12.7862 4.07373 13.3729 4.70561 13.3729 5.47289" stroke="#1E3A4B" stroke-linecap="round" stroke-linejoin="round"/>
<path d="M10.2136 6.87231H12.0641C12.7862 6.87231 13.3729 7.50419 13.3729 8.27147C13.3729 9.03876 12.7862 9.67064 12.0641 9.67064H10.2136C9.49141 9.67064 8.90466 9.03876 8.90466 8.27147" stroke="#1E3A4B" stroke-linecap="round" stroke-linejoin="round"/>
<path d="M11.1313 3.41211V10.4831" stroke="#1E3A4B" stroke-linecap="round" stroke-linejoin="round"/>
<path d="M4.88782 10.9645V2.3439C4.88782 1.69698 5.44447 1.17041 6.15158 1.17041H34.9923C35.6844 1.17041 36.2561 1.69698 36.2561 2.3439V10.9645" stroke="#1E3A4B" stroke-linecap="round" stroke-linejoin="round"/>
<path d="M18.2024 5.32275H32.54" stroke="#1E3A4B" stroke-miterlimit="10"/>
<path d="M18.2024 8.57227H32.54" stroke="#1E3A4B" stroke-miterlimit="10"/>
</svg>
