<svg width="16" height="16" viewBox="0 0 16 16" fill="none" xmlns="http://www.w3.org/2000/svg">
<path d="M6.11076 0C2.73427 0 0 2.73427 0 6.11076C0 9.48725 2.73427 12.2215 6.11076 12.2215C7.53628 12.2215 8.84747 11.718 9.8862 10.8982L10.4311 11.4431C10.2024 11.8737 10.2827 12.4234 10.6452 12.7859L13.5059 15.6661C13.9511 16.1113 14.676 16.1113 15.1212 15.6661L15.6661 15.1212C16.1113 14.676 16.1113 13.9511 15.6661 13.5059L12.7859 10.6452C12.421 10.2803 11.8737 10.217 11.4431 10.4506L10.8982 9.90566C11.7228 8.8645 12.2215 7.54358 12.2215 6.11076C12.2215 2.73427 9.48725 0 6.11076 0ZM6.11076 1.12874C8.86206 1.12874 11.0928 3.35946 11.0928 6.11076C11.0928 8.86206 8.86206 11.0928 6.11076 11.0928C3.35946 11.0928 1.12874 8.86206 1.12874 6.11076C1.12874 3.35946 3.35946 1.12874 6.11076 1.12874Z" fill="#1E3A4B"/>
</svg>
