<svg width="41" height="46" viewBox="0 0 41 46" fill="none" xmlns="http://www.w3.org/2000/svg">
<path d="M20.1848 35.0913C18.8157 35.2568 17.8378 36.5055 18.0033 37.8595C18.1688 39.2136 19.4175 40.1915 20.7866 40.026L27.2408 39.2437" stroke="#1E3A4B" stroke-linecap="round" stroke-linejoin="round"/>
<path d="M39.9386 36.5505H36.027M36.358 39.0781L36.027 36.6408C35.6358 35.0461 34.2517 33.8575 32.5968 33.7372C32.4764 33.7372 32.3561 33.7372 32.2357 33.7372C31.8746 33.7372 30.6259 33.8274 30.325 33.8575L20.3955 35.0611C19.0264 35.2266 17.9432 36.4904 17.9883 37.8594C17.9883 37.8594 18.0034 37.9798 18.0184 38.055L16.2732 36.8665L12.0156 33.9779C10.2253 32.7593 8.91636 34.8806 8.91636 34.8806C8.91636 34.8806 7.50216 36.9267 9.57833 38.3258L18.0184 44.0428C18.4547 44.3888 19.0264 44.5995 19.6282 44.5694H39.7731" stroke="#1E3A4B" stroke-linecap="round" stroke-linejoin="round"/>
<path d="M19.8989 22.1829H33.9056H36.8393V25.1467V36.5506" stroke="#1E3A4B" stroke-linecap="round" stroke-linejoin="round"/>
<path d="M9.18713 34.4592V25.1917" stroke="#1E3A4B" stroke-linecap="round" stroke-linejoin="round"/>
<path d="M18.8457 33.3461C17.7475 32.2629 17.0554 30.7584 17.0554 29.1035C17.0554 26.9521 18.1838 25.0715 19.8989 24.0334" stroke="#1E3A4B" stroke-linecap="round" stroke-linejoin="round"/>
<path d="M26.1275 24.0183C27.8276 25.0714 28.9559 26.937 28.9559 29.0884C28.9559 30.292 28.5948 31.4053 27.993 32.3381" stroke="#1E3A4B" stroke-linecap="round" stroke-linejoin="round"/>
<path d="M36.8394 27.3733C33.9809 27.3733 31.6489 25.0564 31.6489 22.1829" stroke="#1E3A4B" stroke-linecap="round" stroke-linejoin="round"/>
<path d="M32.2206 33.5115C32.4312 33.0903 32.702 32.7141 33.018 32.3681C33.9658 31.33 35.3198 30.6831 36.8393 30.6831" stroke="#1E3A4B" stroke-linecap="round" stroke-linejoin="round"/>
<path d="M9.18713 30.6831C11.9403 30.6831 14.3776 33.7974 14.3776 36.5506" stroke="#1E3A4B" stroke-linecap="round" stroke-linejoin="round"/>
<path d="M23.9159 29.0282H22.1105C21.4034 29.0282 20.8317 28.4113 20.8317 27.6591C20.8317 26.9069 21.4034 26.29 22.1105 26.29H23.9159C24.623 26.29 25.1947 26.9069 25.1947 27.6591" stroke="#1E3A4B" stroke-linecap="round" stroke-linejoin="round"/>
<path d="M22.1105 29.0283H23.9159C24.623 29.0283 25.1947 29.6452 25.1947 30.3974C25.1947 31.1496 24.623 31.7665 23.9159 31.7665H22.1105C21.4034 31.7665 20.8317 31.1496 20.8317 30.3974" stroke="#1E3A4B" stroke-linecap="round" stroke-linejoin="round"/>
<path d="M23.0132 25.6584V32.5339" stroke="#1E3A4B" stroke-linecap="round" stroke-linejoin="round"/>
<path d="M8.08891 5.72386C8.08891 5.72386 8.04378 5.67872 8.01369 5.69377C5.42599 7.04779 3.66576 9.75585 3.66576 12.8852C3.66576 17.3685 7.30658 20.9943 11.7749 20.9943V23.582C11.7749 23.612 11.7448 23.6421 11.7147 23.6421C5.80211 23.612 1.01788 18.8128 1.01788 12.8852C1.01788 8.7328 3.37991 5.12207 6.82515 3.33174C6.96055 3.25652 7.111 3.1813 7.2464 3.12112C7.27649 3.12112 7.27649 3.07598 7.27649 3.06094L7.14109 2.6096L6.88533 1.75205C6.82515 1.54142 7.08091 1.36088 7.2464 1.51133L8.29954 2.36888L9.81905 3.60255C9.81905 3.60255 9.92437 3.753 9.89428 3.84326L9.30753 5.72386L8.90133 7.03275C8.8261 7.24337 8.52521 7.24337 8.46503 7.03275L8.19422 6.13006L8.07386 5.75395L8.08891 5.72386Z" stroke="#1E3A4B" stroke-linecap="round" stroke-linejoin="round"/>
<path d="M15.4609 20.0465C15.4609 20.0465 15.506 20.0916 15.5361 20.0765C18.1238 18.7225 19.884 16.0145 19.884 12.8852C19.884 8.40183 16.2432 4.77605 11.7749 4.77605V2.18835C11.7749 2.15826 11.805 2.12817 11.8351 2.12817C17.7477 2.15826 22.5319 6.95753 22.5319 12.8852C22.5319 17.0375 20.1699 20.6482 16.7246 22.4386C16.5892 22.5138 16.4388 22.589 16.3034 22.6492C16.2733 22.6492 16.2733 22.6943 16.2733 22.7094L16.4087 23.1607L16.6644 24.0183C16.7246 24.2289 16.4689 24.4094 16.3034 24.259L15.2502 23.4014L13.7307 22.1678C13.7307 22.1678 13.6254 22.0173 13.6555 21.927L14.2422 20.0465L14.6484 18.7376C14.7237 18.5269 15.0246 18.5269 15.0847 18.7376L15.3555 19.6402L15.4759 20.0164L15.4609 20.0465Z" stroke="#1E3A4B" stroke-linecap="round" stroke-linejoin="round"/>
<path d="M14.3776 13.487H11.7749L11.7899 8.04077" stroke="#1E3A4B" stroke-linecap="round" stroke-linejoin="round"/>
</svg>
