<svg width="17" height="16" viewBox="0 0 17 16" fill="none" xmlns="http://www.w3.org/2000/svg">
<path d="M8.91732 0C13.2695 0 16.8834 3.14758 16.8834 7.1112C16.8834 8.97401 16.0091 10.6134 14.7073 11.8714C14.7583 12.5928 15.1202 13.0226 15.6205 13.4452C15.8901 13.6711 16.1864 13.8824 16.456 14.1447C16.7256 14.407 17 14.7616 17 15.2522C17 15.5363 16.8081 15.7841 16.5337 15.8545C15.3655 16.1678 14.1099 15.9371 12.9587 15.5242C11.924 15.1526 11.0473 14.6013 10.3551 14.067C9.88637 14.1447 9.41277 14.203 8.91732 14.203C4.56511 14.203 0.951214 11.0724 0.951214 7.1112C0.951214 3.15001 4.56511 0 8.91732 0ZM8.91732 1.24349C5.15771 1.24349 2.1947 3.91019 2.1947 7.1112C2.1947 10.3122 5.15771 12.9595 8.91732 12.9595C9.40549 12.9595 9.87422 12.9303 10.3357 12.8429C10.5203 12.7992 10.7121 12.8429 10.8603 12.9595C11.4213 13.4307 12.3636 13.999 13.3667 14.3584C13.9836 14.5794 14.6102 14.6814 15.1931 14.7081C15.0619 14.6037 14.9599 14.5284 14.8045 14.3973C14.1779 13.8702 13.425 13.0202 13.425 11.7354C13.425 11.5557 13.5027 11.3857 13.6387 11.2691C14.8822 10.1956 15.6399 8.73357 15.6399 7.1112C15.6399 3.91019 12.6769 1.24349 8.91732 1.24349Z" fill="#1E3A4B"/>
</svg>
