<svg width="51" height="44" viewBox="0 0 51 44" fill="none" xmlns="http://www.w3.org/2000/svg">
<g clip-path="url(#clip0_73_815)">
<path d="M9.7641 36.4985H4.39313" stroke="#1E3A4B" stroke-width="0.75" stroke-linecap="round" stroke-linejoin="round"/>
<path d="M20.8971 15.3755H31.7444C32.7524 15.3755 33.5799 16.1879 33.5799 17.2109V36.5133H17.4519" stroke="#1E3A4B" stroke-width="0.75" stroke-linecap="round" stroke-linejoin="round"/>
<path d="M15.6616 18.4448H21.5591" stroke="#1E3A4B" stroke-width="0.75" stroke-linecap="round" stroke-linejoin="round"/>
<path d="M2.9187 18.4448H6.77015" stroke="#1E3A4B" stroke-width="0.75" stroke-linecap="round" stroke-linejoin="round"/>
<path d="M22.7326 21.8899H31.3833" stroke="#1E3A4B" stroke-width="0.75" stroke-linecap="round" stroke-linejoin="round"/>
<path d="M22.7326 25.7415H25.1247" stroke="#1E3A4B" stroke-width="0.75" stroke-linecap="round" stroke-linejoin="round"/>
<path d="M9.37286 25.7415H21.2883" stroke="#1E3A4B" stroke-width="0.75" stroke-linecap="round" stroke-linejoin="round"/>
<path d="M33.5799 36.4985H37.4163" stroke="#1E3A4B" stroke-width="0.75" stroke-linecap="round" stroke-linejoin="round"/>
<path d="M13.6004 40.3349C15.7192 40.3349 17.4369 38.6173 17.4369 36.4985C17.4369 34.3797 15.7192 32.6621 13.6004 32.6621C11.4817 32.6621 9.76404 34.3797 9.76404 36.4985C9.76404 38.6173 11.4817 40.3349 13.6004 40.3349Z" stroke="#1E3A4B" stroke-width="0.75" stroke-linecap="round" stroke-linejoin="round"/>
<path d="M13.6004 38.033C14.4479 38.033 15.135 37.3459 15.135 36.4984C15.135 35.6509 14.4479 34.9639 13.6004 34.9639C12.7529 34.9639 12.0659 35.6509 12.0659 36.4984C12.0659 37.3459 12.7529 38.033 13.6004 38.033Z" stroke="#1E3A4B" stroke-width="0.75" stroke-linecap="round" stroke-linejoin="round"/>
<path d="M41.2527 40.3349C43.3715 40.3349 45.0891 38.6173 45.0891 36.4985C45.0891 34.3797 43.3715 32.6621 41.2527 32.6621C39.1339 32.6621 37.4163 34.3797 37.4163 36.4985C37.4163 38.6173 39.1339 40.3349 41.2527 40.3349Z" stroke="#1E3A4B" stroke-width="0.75" stroke-linecap="round" stroke-linejoin="round"/>
<path d="M41.2526 38.033C42.1002 38.033 42.7872 37.3459 42.7872 36.4984C42.7872 35.6509 42.1002 34.9639 41.2526 34.9639C40.4051 34.9639 39.7181 35.6509 39.7181 36.4984C39.7181 37.3459 40.4051 38.033 41.2526 38.033Z" stroke="#1E3A4B" stroke-width="0.75" stroke-linecap="round" stroke-linejoin="round"/>
<path d="M33.61 20.7466H43.2085C43.6147 20.7466 43.9909 20.9271 44.2466 21.2431L46.9998 24.6733L49.7831 28.1486C49.9787 28.3893 50.084 28.6752 50.084 28.9911V35.355C50.084 35.9869 49.5725 36.5135 48.9255 36.5135H45.0891" stroke="#1E3A4B" stroke-width="0.75" stroke-linecap="round" stroke-linejoin="round"/>
<path d="M47.6617 28.4044L43.0731 22.6724H36.649V28.4195L47.6617 28.4044Z" stroke="#1E3A4B" stroke-width="0.75" stroke-linecap="round" stroke-linejoin="round"/>
<path d="M8.22949 40.335H48.1733" stroke="#1E3A4B" stroke-width="0.75" stroke-linecap="round" stroke-linejoin="round"/>
<path d="M4.39313 42.637H44.3369" stroke="#1E3A4B" stroke-width="0.75" stroke-linecap="round" stroke-linejoin="round"/>
<path fill-rule="evenodd" clip-rule="evenodd" d="M11.3588 18.3544C9.74898 16.4588 8.78611 13.9915 8.78611 11.3135C8.78611 5.26552 13.6757 0.375977 19.7086 0.375977C25.7415 0.375977 30.6311 5.26552 30.6311 11.2985C30.6311 17.3314 25.7415 22.2209 19.7086 22.2209C17.0306 22.2209 14.5633 21.2581 12.6677 19.6483L12.9836 21.4988L4.34792 30.1345C3.70099 30.7814 2.66291 30.7814 2.03103 30.1345L0.872583 28.976C0.225659 28.3291 0.225659 27.291 0.872583 26.6591L9.50826 18.0235L11.3588 18.3394V18.3544ZM19.7086 20.551C14.6084 20.551 10.4711 16.4137 10.4711 11.3135C10.4711 6.21333 14.5934 2.06099 19.7086 2.06099C24.8238 2.06099 28.9461 6.19829 28.9461 11.2985C28.9461 16.3986 24.8088 20.5359 19.7086 20.5359V20.551Z" stroke="#1E3A4B" stroke-width="0.75" stroke-linecap="round" stroke-linejoin="round"/>
</g>
<defs>
<clipPath id="clip0_73_815">
<rect width="50.46" height="43.0129" fill="white"/>
</clipPath>
</defs>
</svg>
